# File produced by Open Asset Import Library (http://www.assimp.sf.net)
# (assimp v3.0.1270)

mtllib HeadYaw.obj.mtl

# 8 vertex positions
v  -12.6 -12.6 -12.4771
v  12.6 -12.6 -12.4771
v  12.6 -12.6 12.7229
v  -12.6 -12.6 12.7229
v  12.6 12.6 -12.4772
v  -12.6 12.6 -12.4771
v  12.6 12.6 12.7228
v  -12.6 12.6 12.7229

# 1 UV coordinates
vt 0.505089 0.166504 0

# 4 vertex normals
vn -0.707107 -0.707107 0
vn 0.707107 -0.707107 0
vn 0.707107 0.707107 0
vn -0.707107 0.707107 0

# Mesh 'root' with 8 faces
g root
usemtl $Material_0
f  1/1/1 2/1/2 3/1/2
f  1/1/1 3/1/2 4/1/1
f  5/1/3 6/1/4 7/1/3
f  6/1/4 8/1/4 7/1/3
f  2/1/2 5/1/3 7/1/3
f  2/1/2 7/1/3 3/1/2
f  8/1/4 6/1/4 4/1/1
f  6/1/4 1/1/1 4/1/1

