# File produced by Open Asset Import Library (http://www.assimp.sf.net)
# (assimp v3.0.1270)

mtllib LAnklePitch.obj.mtl

# 70 vertex positions
v  -39.7995 -11.6116 17.1728
v  -39.7995 -11.6116 21.8727
v  -39.7995 12.4884 17.1728
v  -39.7995 12.4884 21.8727
v  -20.8075 -11.6116 42.1292
v  -20.8075 12.4884 42.1292
v  -30.8433 12.4884 34.6166
v  -30.8433 -11.6116 34.6166
v  -9.06173 -11.6116 46.5102
v  -9.06173 12.4884 46.5102
v  3.44256 -11.6116 47.4045
v  3.44256 12.4884 47.4045
v  15.6923 -11.6116 44.7398
v  15.6923 12.4884 44.7398
v  26.6951 -11.6116 38.7318
v  26.6951 12.4884 38.7318
v  35.5595 -11.6116 29.8673
v  35.5595 12.4884 29.8673
v  41.5675 -11.6116 18.8646
v  41.5675 12.4884 18.8646
v  44.3323 -11.6116 10.9981
v  44.3323 12.4884 10.9981
v  -36.256 12.4884 28.2808
v  -36.256 -11.6116 28.2808
v  -37.3135 -14.2704 21.6628
v  -37.3135 -14.2704 17.2636
v  -28.9306 -14.2704 33.591
v  -19.5371 -14.2704 40.6229
v  -8.543 -14.2704 44.7234
v  3.16102 -14.2704 45.5605
v  14.6268 -14.2704 43.0663
v  24.9254 -14.2704 37.4428
v  33.2225 -14.2704 29.1457
v  38.846 -14.2704 18.8471
v  41.4402 -14.2704 10.9981
v  -33.8625 -14.2704 27.8975
v  32.6005 -6.47592 -13.1334
v  32.6005 -11.9561 -9.47171
v  -27.8995 -11.9561 -9.47171
v  -27.8995 -6.47592 -13.1334
v  32.6005 -0.0116361 -14.4193
v  -27.8995 -0.0116334 -14.4193
v  32.6005 6.45265 -13.1334
v  -27.8995 6.45266 -13.1334
v  32.6005 11.9328 -9.47171
v  -27.8995 11.9328 -9.47171
v  32.6005 -14.2468 -6.73163
v  -27.8995 -14.2468 -6.73163
v  32.6005 14.2235 -6.73163
v  -27.8995 14.2235 -6.73163
v  -37.3135 14.2472 21.6628
v  -37.3135 14.2472 17.2636
v  -28.9306 14.2472 33.591
v  -33.8625 14.2472 27.8975
v  -19.5371 14.2472 40.6229
v  -8.54299 14.2472 44.7234
v  3.16102 14.2472 45.5605
v  14.6268 14.2472 43.0663
v  24.9254 14.2472 37.4429
v  33.2225 14.2472 29.1457
v  38.846 14.2472 18.8471
v  41.4402 14.2472 10.9981
v  -27.8995 -14.2704 11.2684
v  32.6005 -14.2704 11.2684
v  32.6005 14.2472 11.2684
v  -27.8995 14.2472 11.2684
v  -27.8995 -14.2704 18.2684
v  32.6005 -14.2704 18.2684
v  32.6005 14.2472 18.2684
v  -27.8995 14.2472 18.2684

# 1 UV coordinates
vt 0.505089 0.166504 0

# 67 vertex normals
vn -0.930178 -0.367109 -2.43158e-14
vn -0.900161 -0.367114 0.234387
vn -0.888133 0.459586 1.38653e-14
vn -0.858178 0.461912 0.223983
vn -0.455195 -0.309374 0.834916
vn -0.437429 0.40511 0.802834
vn -0.620636 0.417318 0.66382
vn -0.646698 -0.321884 0.6915
vn -0.202525 -0.300522 0.932025
vn -0.194896 0.39614 0.897267
vn 0.067782 -0.300915 0.951239
vn 0.065159 0.396538 0.915703
vn 0.331587 -0.310468 0.890876
vn 0.318494 0.406206 0.85648
vn 0.565402 -0.327656 0.756942
vn 0.541927 0.423178 0.72611
vn 0.749196 -0.349847 0.562416
vn 0.716234 0.444335 0.538122
vn 0.848476 -0.37176 0.376673
vn 0.809525 0.463894 0.359823
vn 0.87278 -0.382738 0.302931
vn 0.831948 0.473471 0.289289
vn -0.739842 0.43337 0.514611
vn -0.772543 -0.338554 0.537176
vn -0.710023 -0.678864 0.187112
vn -0.730452 -0.682964 -4.04462e-14
vn -0.540888 -0.608915 0.580227
vn -0.386795 -0.587518 0.710783
vn -0.173928 -0.572414 0.801306
vn 0.0580161 -0.57308 0.817443
vn 0.281173 -0.589356 0.757364
vn 0.469545 -0.618146 0.630415
vn 0.603944 -0.654362 0.455041
vn 0.662029 -0.689954 0.292713
vn 0.669191 -0.707187 0.228191
vn -0.632262 -0.636657 0.441488
vn 3.34551e-08 -0.382682 -0.92388
vn 5.84146e-08 -0.668185 -0.743995
vn -4.38348e-15 -7.8323e-14 -1
vn -3.34551e-08 0.382682 -0.92388
vn -5.84146e-08 0.668185 -0.743995
vn 8.2158e-08 -0.939778 -0.341785
vn -8.2158e-08 0.939778 -0.341785
vn -1 -8.74228e-08 4.38348e-15
vn 1 8.74228e-08 -4.38348e-15
vn -0.562479 0.813169 0.149577
vn -0.577546 0.816358 4.11968e-14
vn -0.444857 0.757471 0.477849
vn -0.512477 0.780282 0.358508
vn -0.321431 0.739151 0.591894
vn -0.1457 0.725873 0.67222
vn 0.048403 0.726474 0.685487
vn 0.233258 0.740731 0.630007
vn 0.383964 0.765121 0.516876
vn 0.484651 0.794303 0.366327
vn 0.521425 0.8214 0.231124
vn 0.522098 0.8341 0.178021
vn 8.74228e-08 -1 -3.53638e-14
vn 8.74228e-08 -1 -0.000641
vn 8.74228e-08 -1 -0.000427
vn -8.74228e-08 1 -0.000427
vn -8.74228e-08 1 -0.000641
vn 0.0365 3.19086e-09 -0.999334
vn 0.071353 6.23782e-09 -0.997451
vn -8.74228e-08 1 3.53638e-14
vn -0.03055 -2.67083e-09 -0.999533
vn 0.106116 9.2769e-09 -0.994354

# Mesh 'root' with 136 faces
g root
usemtl $Material_0
f  1/1/1 2/1/2 3/1/3
f  2/1/2 4/1/4 3/1/3
f  5/1/5 6/1/6 7/1/7
f  5/1/5 7/1/7 8/1/8
f  9/1/9 10/1/10 5/1/5
f  10/1/10 6/1/6 5/1/5
f  11/1/11 12/1/12 9/1/9
f  12/1/12 10/1/10 9/1/9
f  13/1/13 14/1/14 12/1/12
f  13/1/13 12/1/12 11/1/11
f  15/1/15 16/1/16 14/1/14
f  15/1/15 14/1/14 13/1/13
f  17/1/17 18/1/18 15/1/15
f  18/1/18 16/1/16 15/1/15
f  19/1/19 20/1/20 18/1/18
f  19/1/19 18/1/18 17/1/17
f  21/1/21 22/1/22 19/1/19
f  22/1/22 20/1/20 19/1/19
f  8/1/8 7/1/7 23/1/23
f  8/1/8 23/1/23 24/1/24
f  4/1/4 2/1/2 23/1/23
f  2/1/2 24/1/24 23/1/23
f  2/1/2 1/1/1 25/1/25
f  1/1/1 26/1/26 25/1/25
f  8/1/8 27/1/27 5/1/5
f  27/1/27 28/1/28 5/1/5
f  5/1/5 28/1/28 9/1/9
f  28/1/28 29/1/29 9/1/9
f  9/1/9 29/1/29 30/1/30
f  9/1/9 30/1/30 11/1/11
f  11/1/11 30/1/30 31/1/31
f  11/1/11 31/1/31 13/1/13
f  13/1/13 31/1/31 32/1/32
f  13/1/13 32/1/32 15/1/15
f  15/1/15 32/1/32 33/1/33
f  15/1/15 33/1/33 17/1/17
f  17/1/17 33/1/33 34/1/34
f  17/1/17 34/1/34 19/1/19
f  19/1/19 34/1/34 35/1/35
f  19/1/19 35/1/35 21/1/21
f  24/1/24 36/1/36 8/1/8
f  36/1/36 27/1/27 8/1/8
f  2/1/2 25/1/25 24/1/24
f  25/1/25 36/1/36 24/1/24
f  37/1/37 38/1/38 39/1/38
f  37/1/37 39/1/38 40/1/37
f  41/1/39 37/1/37 40/1/37
f  41/1/39 40/1/37 42/1/39
f  43/1/40 41/1/39 42/1/39
f  43/1/40 42/1/39 44/1/40
f  45/1/41 43/1/40 44/1/40
f  45/1/41 44/1/40 46/1/41
f  38/1/38 47/1/42 48/1/42
f  38/1/38 48/1/42 39/1/38
f  49/1/43 45/1/41 46/1/41
f  49/1/43 46/1/41 50/1/43
f  39/1/44 48/1/44 50/1/44
f  39/1/44 50/1/44 46/1/44
f  39/1/44 46/1/44 44/1/44
f  39/1/44 44/1/44 40/1/44
f  40/1/44 44/1/44 42/1/44
f  38/1/45 45/1/45 47/1/45
f  45/1/45 49/1/45 47/1/45
f  38/1/45 37/1/45 45/1/45
f  37/1/45 43/1/45 45/1/45
f  37/1/45 41/1/45 43/1/45
f  3/1/3 4/1/4 51/1/46
f  3/1/3 51/1/46 52/1/47
f  7/1/7 53/1/48 54/1/49
f  7/1/7 54/1/49 23/1/23
f  4/1/4 23/1/23 51/1/46
f  23/1/23 54/1/49 51/1/46
f  6/1/6 55/1/50 53/1/48
f  6/1/6 53/1/48 7/1/7
f  6/1/6 10/1/10 55/1/50
f  10/1/10 56/1/51 55/1/50
f  10/1/10 12/1/12 57/1/52
f  10/1/10 57/1/52 56/1/51
f  12/1/12 14/1/14 58/1/53
f  12/1/12 58/1/53 57/1/52
f  14/1/14 16/1/16 59/1/54
f  14/1/14 59/1/54 58/1/53
f  16/1/16 18/1/18 60/1/55
f  16/1/16 60/1/55 59/1/54
f  18/1/18 20/1/20 61/1/56
f  18/1/18 61/1/56 60/1/55
f  20/1/20 22/1/22 62/1/57
f  20/1/20 62/1/57 61/1/56
f  28/1/58 31/1/58 30/1/58
f  28/1/58 30/1/58 29/1/58
f  28/1/58 27/1/58 32/1/58
f  28/1/58 32/1/58 31/1/58
f  27/1/58 36/1/58 32/1/58
f  36/1/58 33/1/58 32/1/58
f  48/1/42 47/1/42 63/1/59
f  47/1/42 64/1/60 63/1/59
f  49/1/43 50/1/43 65/1/61
f  50/1/43 66/1/62 65/1/61
f  48/1/44 63/1/44 50/1/44
f  63/1/44 66/1/44 50/1/44
f  47/1/45 49/1/45 64/1/45
f  49/1/45 65/1/45 64/1/45
f  21/1/39 35/1/39 62/1/39
f  21/1/39 62/1/39 22/1/39
f  1/1/63 3/1/63 52/1/64
f  1/1/63 52/1/64 26/1/64
f  63/1/59 64/1/60 67/1/58
f  64/1/60 68/1/58 67/1/58
f  65/1/61 66/1/62 69/1/65
f  66/1/62 70/1/65 69/1/65
f  66/1/44 63/1/44 70/1/44
f  63/1/44 67/1/44 70/1/44
f  35/1/66 64/1/66 62/1/66
f  64/1/66 65/1/66 62/1/66
f  34/1/58 68/1/58 64/1/60
f  34/1/58 64/1/60 35/1/58
f  62/1/65 65/1/61 61/1/65
f  65/1/61 69/1/65 61/1/65
f  33/1/58 68/1/58 34/1/58
f  33/1/58 36/1/58 67/1/58
f  33/1/58 67/1/58 68/1/58
f  26/1/64 52/1/64 67/1/67
f  52/1/64 70/1/67 67/1/67
f  26/1/58 67/1/58 25/1/58
f  67/1/58 36/1/58 25/1/58
f  54/1/65 70/1/65 51/1/65
f  70/1/65 52/1/65 51/1/65
f  61/1/65 69/1/65 60/1/65
f  54/1/65 60/1/65 70/1/65
f  60/1/65 69/1/65 70/1/65
f  54/1/65 53/1/65 59/1/65
f  54/1/65 59/1/65 60/1/65
f  59/1/65 53/1/65 55/1/65
f  59/1/65 55/1/65 58/1/65
f  58/1/65 55/1/65 57/1/65
f  55/1/65 56/1/65 57/1/65

