# File produced by Open Asset Import Library (http://www.assimp.sf.net)
# (assimp v3.0.1270)

mtllib LHipRoll.obj.mtl

# 48 vertex positions
v  -42.7 -11.1533 13.0264
v  -42.7 -13.6511 10.1987
v  8.6 -11.1533 13.0264
v  8.6 -13.6511 10.1987
v  -42.7 -5.82562 16.5862
v  8.6 -5.82562 16.5862
v  -42.7 0.458811 17.8362
v  8.6 0.458808 17.8362
v  -42.7 6.74324 16.5862
v  8.6 6.74324 16.5862
v  -42.7 12.0709 13.0264
v  8.6 12.0709 13.0264
v  -42.7 14.5687 10.1987
v  8.6 14.5687 10.1987
v  -42.7 -13.6511 -16.4013
v  8.6 -13.6511 -16.4013
v  -42.7 14.5687 -16.4013
v  8.6 14.5687 -16.4013
v  -24.1831 12.5588 -23.8688
v  -27.0967 12.5588 -20.2735
v  -24.1831 14.4588 -21.4688
v  -27.0967 14.4588 -17.8735
v  -13.0878 12.5588 -31.2824
v  -13.0878 14.4588 -28.8825
v  -1e-06 12.5588 -33.8858
v  -1e-06 14.4588 -31.4858
v  13.0878 12.5588 -31.2824
v  13.0878 14.4588 -28.8825
v  24.1831 12.5588 -23.8688
v  24.1831 14.4588 -21.4688
v  -42.6967 14.4588 -17.8735
v  -42.6967 12.5588 -20.2735
v  -42.6967 -11.6412 -20.2735
v  -27.0967 -11.6412 -20.2735
v  -42.6967 -13.5412 -17.8735
v  -27.0967 -13.5412 -17.8735
v  24.1831 -11.6412 -23.8688
v  24.1831 -13.5412 -21.4688
v  13.0878 -13.5412 -28.8825
v  13.0878 -11.6412 -31.2824
v  -2e-06 -13.5412 -31.4858
v  -2e-06 -11.6412 -33.8857
v  -13.0878 -11.6412 -31.2824
v  -13.0878 -13.5412 -28.8825
v  -24.1831 -11.6412 -23.8688
v  -24.1831 -13.5412 -21.4688
v  24.1831 -13.5412 -16.4688
v  24.1831 14.4588 -16.4688

# 1 UV coordinates
vt 0.505089 0.166504 0

# 49 vertex normals
vn 0 -0.65799 0.753026
vn 0 -0.935274 0.353925
vn 0 -0.382682 0.92388
vn 0 0 1
vn 0 0.382682 0.92388
vn 0 0.65799 0.753026
vn 0 0.935274 0.353925
vn 0 -0.999307 -0.037233
vn 0.000153 -0.999504 -0.031496
vn 0 0.999307 -0.037233
vn 0.000153 0.999504 -0.031496
vn -0.630094 0.365159 -0.685303
vn -0.409812 0.416191 -0.811689
vn -0.499819 0.679091 -0.537602
vn -0.320998 0.742555 -0.587855
vn -0.350514 0.419183 -0.837511
vn -0.255141 0.758097 -0.60016
vn 0 0.438071 -0.89894
vn 0 0.784045 -0.620705
vn 0.350514 0.419183 -0.837511
vn 0.255141 0.758097 -0.60016
vn 0.775065 0.289535 -0.561644
vn 0.831595 0.435452 -0.344718
vn 0 0.43548 -0.900198
vn 0 1 0
vn 0.000244 0.99995 -0.00998
vn 0 0.997226 -0.074435
vn 0 -0.43548 -0.900198
vn -0.409812 -0.416191 -0.811689
vn 0 -0.784045 -0.620705
vn -0.320998 -0.742555 -0.587855
vn 0.775065 -0.289535 -0.561644
vn 0.831595 -0.435452 -0.344718
vn 0.255141 -0.758097 -0.60016
vn 0.350514 -0.419183 -0.837511
vn 0 -0.438047 -0.898952
vn -0.350514 -0.419183 -0.837511
vn -0.255141 -0.758097 -0.60016
vn -0.630094 -0.365159 -0.685303
vn -0.499819 -0.679091 -0.537602
vn 0 -0.997226 -0.074435
vn 0 -1 0
vn 0.000244 -0.99995 -0.00998
vn -1 0 0
vn -0.999999 0 -0.001099
vn 1 0 0
vn 0.004303 0 0.999991
vn 0.000519 -0.9998 -0.01999
vn 0.000519 0.9998 -0.01999

# Mesh 'root' with 92 faces
g root
usemtl $Material_0
f  1/1/1 2/1/2 3/1/1
f  2/1/2 4/1/2 3/1/1
f  5/1/3 1/1/1 6/1/3
f  1/1/1 3/1/1 6/1/3
f  7/1/4 5/1/3 8/1/4
f  5/1/3 6/1/3 8/1/4
f  9/1/5 7/1/4 10/1/5
f  7/1/4 8/1/4 10/1/5
f  11/1/6 9/1/5 12/1/6
f  9/1/5 10/1/5 12/1/6
f  13/1/7 11/1/6 14/1/7
f  11/1/6 12/1/6 14/1/7
f  4/1/2 2/1/2 15/1/8
f  4/1/2 15/1/8 16/1/9
f  13/1/7 14/1/7 17/1/10
f  14/1/7 18/1/11 17/1/10
f  19/1/12 20/1/13 21/1/14
f  20/1/13 22/1/15 21/1/14
f  23/1/16 19/1/12 24/1/17
f  19/1/12 21/1/14 24/1/17
f  25/1/18 23/1/16 26/1/19
f  23/1/16 24/1/17 26/1/19
f  27/1/20 25/1/18 26/1/19
f  27/1/20 26/1/19 28/1/21
f  29/1/22 27/1/20 28/1/21
f  29/1/22 28/1/21 30/1/23
f  22/1/15 20/1/13 31/1/19
f  20/1/13 32/1/24 31/1/19
f  21/1/25 28/1/25 26/1/25
f  21/1/25 26/1/25 24/1/25
f  21/1/25 22/1/11 28/1/25
f  22/1/11 30/1/26 28/1/25
f  18/1/11 22/1/11 17/1/10
f  22/1/11 31/1/27 17/1/10
f  33/1/28 34/1/29 35/1/30
f  34/1/29 36/1/31 35/1/30
f  37/1/32 38/1/33 39/1/34
f  37/1/32 39/1/34 40/1/35
f  40/1/35 39/1/34 41/1/30
f  40/1/35 41/1/30 42/1/36
f  42/1/36 41/1/30 43/1/37
f  41/1/30 44/1/38 43/1/37
f  43/1/37 44/1/38 45/1/39
f  44/1/38 46/1/40 45/1/39
f  45/1/39 46/1/40 34/1/29
f  46/1/40 36/1/31 34/1/29
f  23/1/16 25/1/18 42/1/36
f  23/1/16 42/1/36 43/1/37
f  25/1/18 27/1/20 42/1/36
f  27/1/20 40/1/35 42/1/36
f  27/1/20 29/1/22 37/1/32
f  27/1/20 37/1/32 40/1/35
f  19/1/12 23/1/16 43/1/37
f  19/1/12 43/1/37 45/1/39
f  20/1/13 19/1/12 45/1/39
f  20/1/13 45/1/39 34/1/29
f  20/1/13 34/1/29 32/1/24
f  34/1/29 33/1/28 32/1/24
f  15/1/8 35/1/41 36/1/9
f  15/1/8 36/1/9 16/1/9
f  41/1/42 39/1/42 46/1/42
f  41/1/42 46/1/42 44/1/42
f  36/1/9 46/1/42 39/1/42
f  36/1/9 39/1/42 38/1/43
f  32/1/44 33/1/44 35/1/45
f  32/1/44 35/1/45 31/1/45
f  15/1/45 17/1/45 31/1/45
f  15/1/45 31/1/45 35/1/45
f  2/1/44 13/1/44 15/1/45
f  13/1/44 17/1/45 15/1/45
f  2/1/44 1/1/44 11/1/44
f  2/1/44 11/1/44 13/1/44
f  1/1/44 5/1/44 11/1/44
f  5/1/44 9/1/44 11/1/44
f  5/1/44 7/1/44 9/1/44
f  4/1/46 16/1/46 18/1/46
f  4/1/46 18/1/46 14/1/46
f  4/1/46 14/1/46 12/1/46
f  4/1/46 12/1/46 3/1/46
f  3/1/46 12/1/46 6/1/46
f  12/1/46 10/1/46 6/1/46
f  6/1/46 10/1/46 8/1/46
f  29/1/22 30/1/23 37/1/32
f  30/1/23 38/1/33 37/1/32
f  38/1/46 30/1/46 47/1/46
f  30/1/46 48/1/46 47/1/46
f  16/1/47 47/1/47 48/1/47
f  16/1/47 48/1/47 18/1/47
f  36/1/9 38/1/43 16/1/9
f  38/1/43 47/1/48 16/1/9
f  22/1/11 18/1/11 30/1/26
f  18/1/11 48/1/49 30/1/26

