# File produced by Open Asset Import Library (http://www.assimp.sf.net)
# (assimp v3.0.1270)

mtllib LShoulderPitch.obj.mtl

# 126 vertex positions
v  -27.6635 -24.4746 -15.1817
v  -30.7886 -22.5746 -6.80293
v  -30.7886 -25.5631 -6.80293
v  -27.6635 -25.5631 -15.1817
v  25.0635 -24.4746 -18.9528
v  18.7401 -24.4746 -25.2762
v  25.0635 -25.5631 -18.9528
v  18.7401 -25.5631 -25.2762
v  10.8914 -24.4746 -29.5619
v  2.15316 -24.4746 -31.4628
v  10.8914 -25.5631 -29.5619
v  2.15316 -25.5631 -31.4628
v  22.1279 -7.93175 18.6885
v  27.4871 -11.8308 12.6845
v  22.1279 -25.5631 21.6885
v  27.4871 -25.5631 12.6845
v  -11.0679 -25.5631 29.7448
v  -18.9166 -25.5631 24.1505
v  -18.9166 -6.33295 21.1505
v  -11.0679 -3.99876 24.7448
v  -2.32962 -25.5631 31.339
v  -2.32962 -2.96346 26.339
v  6.59021 -3.31091 25.804
v  14.969 -5.01297 23.183
v  6.59021 -25.5631 30.804
v  14.969 -25.5631 28.183
v  30.6122 -17.0214 4.9768
v  30.6122 -25.5631 4.97681
v  31.2501 -20.9177 -2.74645
v  31.2501 -25.5631 -2.74645
v  29.3492 -23.8096 -11.2941
v  29.3492 -25.5631 -11.2941
v  -15.1455 -24.4746 -27.6997
v  -15.1455 -25.5631 -27.6997
v  -6.76667 -24.4746 -30.8249
v  -6.76667 -25.5631 -30.8249
v  -22.3044 -24.4746 -22.3406
v  -22.3044 -25.5631 -22.3406
v  -31.4266 -19.0575 1.13685
v  -31.4266 -25.5631 1.13685
v  -29.5257 -14.0516 9.26472
v  -29.5257 -25.5631 9.26472
v  -25.24 -9.77691 15.8472
v  -25.24 -25.5631 15.8472
v  -29.1148 -24.591 -15.8891
v  -32.4044 -22.591 -7.06929
v  26.3873 -24.591 -19.8586
v  19.7311 -24.591 -26.5148
v  11.4693 -24.591 -31.0261
v  2.27112 -24.591 -33.0271
v  23.2972 -7.17747 19.7638
v  28.9384 -11.2817 13.4438
v  -19.9076 -5.49451 22.3553
v  -11.6457 -3.03748 26.1388
v  -2.44759 -1.94769 27.817
v  6.9417 -2.31343 27.2538
v  15.7615 -4.10506 24.4949
v  14.969 -5.01297 23.1833
v  32.228 -16.7455 5.33042
v  32.8995 -20.8469 -2.79931
v  30.8986 -23.891 -11.7968
v  -15.9379 -24.591 -29.0659
v  -7.11816 -24.591 -32.3555
v  -23.4737 -24.591 -23.4248
v  -33.076 -18.8888 1.28837
v  -31.075 -13.6195 9.84402
v  -26.5637 -9.11974 16.773
v  -23.4737 -25.791 -23.4248
v  -15.9379 -25.791 -29.0659
v  -7.11816 -25.791 -32.3555
v  -32.4044 -24.591 -7.06929
v  -33.076 -19.3888 1.68837
v  -33.076 -21.2842 2.22862
v  -31.075 -16.5464 10.4363
v  32.8995 -21.9409 -2.44409
v  30.8986 -24.591 -11.5968
v  32.8995 -24.591 -2.39864
v  32.228 -17.9455 6.13042
v  28.9384 -15.22 14.5185
v  15.761 -11.148 27.0503
v  23.2972 -12.8914 21.6854
v  6.9417 -10.1316 30.1791
v  -2.44759 -9.92408 30.8177
v  -11.6457 -10.5424 28.9147
v  -19.9076 -11.9365 24.6242
v  -26.5637 -13.9934 18.2938
v  15.7615 -17.5729 28.6364
v  23.2972 -18.358 23.0501
v  6.9417 -17.115 31.894
v  -2.44759 -17.0216 32.559
v  -11.6457 -17.3001 30.5775
v  -19.9076 -17.9279 26.1101
v  -26.5637 -18.8543 19.5187
v  -31.075 -20.0041 11.3373
v  32.228 -20.6342 6.85381
v  28.9384 -19.4067 15.5877
v  15.7615 -24.591 28.9873
v  23.2972 -24.591 23.3461
v  6.9417 -24.591 32.2769
v  -2.44759 -24.591 32.9484
v  -11.6457 -24.591 30.9475
v  -19.9076 -24.591 26.4362
v  -26.5637 -24.591 19.78
v  -31.075 -24.591 11.5181
v  -33.076 -24.591 2.31999
v  32.228 -24.591 6.99064
v  28.9384 -24.591 15.8104
v  23.2972 -25.791 23.3461
v  15.7615 -25.791 28.9873
v  6.9417 -25.791 32.2769
v  -2.44759 -25.791 32.9484
v  -11.6457 -25.791 30.9475
v  -19.9076 -25.791 26.4362
v  -26.5637 -25.791 19.78
v  -31.075 -25.791 11.5181
v  -33.076 -25.791 2.31999
v  -32.4044 -25.791 -7.06929
v  -29.1148 -25.791 -15.8891
v  2.27112 -25.791 -33.0271
v  11.4693 -25.791 -31.0261
v  19.7311 -25.791 -26.5148
v  26.3873 -25.791 -19.8586
v  30.8986 -25.791 -11.5968
v  32.8995 -25.791 -2.39864
v  32.228 -25.791 6.99064
v  28.9384 -25.791 15.8104

# 4 UV coordinates
vt 0 0 0
vt 1 0 0
vt 1 1 0
vt 0 1 0

# 112 vertex normals
vn 0.87768 3.51936e-07 0.479248
vn 0.976208 3.27311e-07 0.216837
vn -0.797425 -1.09061e-07 0.603418
vn -0.599273 -1.15687e-08 0.800545
vn -0.349441 8.86088e-08 0.936958
vn -0.0713233 1.81599e-07 0.997453
vn -0.728413 -0.108833 -0.676439
vn -0.878778 -0.0274683 -0.47644
vn 0.357629 -0.193891 -0.913514
vn 0.634554 -0.112433 -0.764657
vn 0.0629614 -0.218761 -0.973745
vn -0.188545 -0.218423 -0.957466
vn -0.473786 -0.191419 -0.859585
vn -0.972794 -3.29329e-07 -0.23167
vn -0.997675 -2.75742e-07 0.0681497
vn -0.93431 -1.98877e-07 0.356462
vn 0.479248 3.17104e-07 0.87768
vn 0.212563 2.59875e-07 0.977147
vn 0.707107 3.48642e-07 0.707107
vn 0.997205 2.74275e-07 -0.0747097
vn 0.919724 1.87321e-07 -0.392567
vn 0.791139 -0.0288709 -0.610955
vn -0.0168163 0.991557 -0.128576
vn 0.0411098 0.950527 -0.30791
vn 0.0362867 0.996524 -0.0749842
vn 0.0438247 0.997318 -0.0586262
vn 0.0257277 0.997278 -0.0690962
vn 0.00524873 0.99726 -0.0737942
vn -0.0189221 0.828074 -0.5603
vn -0.0197461 0.827729 -0.560781
vn 0.0158999 0.826816 -0.562248
vn 0.00918592 0.824996 -0.565064
vn 0.00186192 0.824192 -0.566308
vn -0.00555408 0.824444 -0.565916
vn -0.0126661 0.825762 -0.563876
vn -0.0352801 0.859776 -0.509451
vn -0.0518512 0.922401 -0.382737
vn -0.0151682 0.978594 -0.205241
vn -0.0351883 0.997294 -0.0645472
vn -0.0156873 0.997266 -0.0722082
vn -0.0514563 0.997344 -0.0515472
vn 0.0474269 0.883109 -0.466764
vn 0.0310079 0.839137 -0.543036
vn 0.0216079 0.829572 -0.557982
vn -0.707107 -3.48642e-07 -0.707107
vn -0.479248 -3.17104e-07 -0.87768
vn -0.212563 -2.59875e-07 -0.977147
vn -0.899621 -3.49669e-07 -0.436672
vn -0.977133 -0.000305327 -0.212627
vn -0.990218 -0.0172133 -0.138464
vn -0.997485 0.0116277 0.0699187
vn -0.997483 0.00521873 0.0707127
vn -0.997471 0.0105587 0.0702837
vn -0.936267 0.0909468 0.339312
vn -0.936033 0.0937558 0.339194
vn 0.997657 -0.0144657 -0.0668667
vn 0.952255 -0.0723298 -0.296614
vn 0.999757 -0.000976715 -0.0220037
vn 0.936668 -0.0381798 -0.348133
vn 0.827277 -0.0457169 -0.559931
vn 0.997511 -0.00335672 -0.0704377
vn 0.977733 0.0669283 0.198892
vn 0.9783 0.0792283 0.191448
vn 0.877785 0.134253 0.459859
vn 0.878426 0.149634 0.453847
vn 0.476615 0.254895 0.841348
vn 0.703869 0.198651 0.681987
vn 0.701457 0.225416 0.676126
vn 0.474394 0.298541 0.828145
vn 0.211284 0.287582 0.93416
vn 0.210095 0.340931 0.916311
vn -0.0708954 0.294231 0.953101
vn -0.0704694 0.349568 0.934257
vn -0.347435 0.274371 0.896666
vn -0.345629 0.323838 0.880721
vn -0.596251 0.229503 0.769294
vn -0.593841 0.265547 0.759498
vn -0.797351 0.162882 0.581121
vn -0.795061 0.178844 0.579563
vn 0.479787 0.12766 0.868048
vn 0.707708 0.102849 0.698979
vn 0.212841 0.142128 0.966695
vn -0.0714153 0.145088 0.986838
vn -0.349898 0.136266 0.926824
vn -0.599884 0.1164 0.791575
vn -0.801078 0.0872249 0.592171
vn -0.937222 0.0511508 0.344961
vn 0.977265 0.0312823 0.2097
vn 0.878097 0.0698893 0.473352
vn 0.478877 0.0218213 0.877611
vn 0.706748 0.0167244 0.707268
vn 0.21235 0.0248733 0.976877
vn -0.0712633 0.0255142 0.997131
vn -0.349172 0.0236521 0.93676
vn -0.598909 0.019502 0.80058
vn -0.800244 0.0136419 0.599519
vn -0.936817 0.0070188 0.34975
vn -0.997448 0.00152572 0.0713837
vn 0.977093 0.00396733 0.212778
vn 0.877455 0.0103464 0.479547
vn -0.800546 -1.10807e-07 0.599272
vn -0.936959 -2.0107e-07 0.34944
vn -0.997453 -2.75034e-07 0.0713227
vn -0.977147 -3.26717e-07 -0.212563
vn -0.87768 -3.51936e-07 -0.479248
vn 0.0713233 -1.81599e-07 -0.997453
vn 0.349441 -8.86088e-08 -0.936958
vn 0.599273 1.15687e-08 -0.800545
vn 0.800546 1.10807e-07 -0.599272
vn 0.936959 2.0107e-07 -0.34944
vn 0.997453 2.75034e-07 -0.0713227
vn 0.977147 3.26717e-07 0.212563

# Mesh 'root' with 206 faces
g root
usemtl $Material_0
f  1/1/1 2/2/2 3/3/2
f  1/1/1 3/3/2 4/4/1
f  5/1/3 6/2/4 7/4/3
f  6/2/4 8/3/4 7/4/3
f  9/1/5 10/2/6 11/4/5
f  10/2/6 12/3/6 11/4/5
f  13/1/7 14/4/8 15/2/7
f  14/4/8 16/3/8 15/2/7
f  17/3/9 18/4/10 19/1/10
f  17/3/9 19/1/10 20/2/9
f  21/3/11 17/4/9 20/1/9
f  21/3/11 20/1/9 22/2/11
f  23/1/12 24/2/13 25/4/12
f  24/2/13 26/3/13 25/4/12
f  24/1/13 13/2/7 26/4/13
f  13/2/7 15/3/7 26/4/13
f  14/1/8 27/4/14 16/2/8
f  27/4/14 28/3/14 16/2/8
f  27/1/14 29/2/15 28/4/14
f  29/2/15 30/3/15 28/4/14
f  31/1/16 5/2/3 32/4/16
f  5/2/3 7/3/3 32/4/16
f  29/1/15 31/3/16 30/4/15
f  31/3/16 32/2/16 30/4/15
f  33/1/17 34/4/17 35/2/18
f  34/4/17 36/3/18 35/2/18
f  37/1/19 38/4/19 33/2/17
f  38/4/19 34/3/17 33/2/17
f  2/1/2 39/2/20 40/3/20
f  2/1/2 40/3/20 3/4/2
f  39/1/20 41/2/21 42/3/21
f  39/1/20 42/3/21 40/4/20
f  22/1/11 23/2/12 21/4/11
f  23/2/12 25/3/12 21/4/11
f  43/1/22 19/2/10 18/3/10
f  43/1/22 18/3/10 44/4/22
f  41/1/21 43/2/22 44/3/22
f  41/1/21 44/3/22 42/4/21
f  6/1/4 9/4/5 8/2/4
f  9/4/5 11/3/5 8/2/4
f  37/1/19 1/4/1 38/2/19
f  1/4/1 4/3/1 38/2/19
f  10/1/6 35/4/18 12/2/6
f  35/4/18 36/3/18 12/2/6
f  45/1/23 46/2/24 2/3/24
f  45/1/23 2/3/24 1/4/23
f  47/1/25 48/2/26 5/4/25
f  48/2/26 6/3/26 5/4/25
f  49/1/27 50/2/28 9/4/27
f  50/2/28 10/3/28 9/4/27
f  51/1/29 52/4/30 13/2/29
f  52/4/30 14/3/30 13/2/29
f  53/1/31 54/2/32 20/3/32
f  53/1/31 20/3/32 19/4/31
f  54/1/32 55/2/33 22/3/33
f  54/1/32 22/3/33 20/4/32
f  56/1/34 57/2/35 23/4/34
f  57/2/35 58/3/35 23/4/34
f  57/1/35 51/2/29 58/4/35
f  51/2/29 13/3/29 58/4/35
f  52/1/30 59/4/36 14/2/30
f  59/4/36 27/3/36 14/2/30
f  59/1/36 60/2/37 27/4/36
f  60/2/37 29/3/37 27/4/36
f  61/1/38 47/2/25 31/4/38
f  47/2/25 5/3/25 31/4/38
f  60/1/37 61/3/38 29/4/37
f  61/3/38 31/2/38 29/4/37
f  62/1/39 33/4/39 63/2/40
f  33/4/39 35/3/40 63/2/40
f  64/1/41 37/4/41 62/2/39
f  37/4/41 33/3/39 62/2/39
f  46/1/24 65/2/42 39/3/42
f  46/1/24 39/3/42 2/4/24
f  65/1/42 66/2/43 41/3/43
f  65/1/42 41/3/43 39/4/42
f  55/1/33 56/2/34 22/4/33
f  56/2/34 23/3/34 22/4/33
f  67/1/44 53/2/31 19/3/31
f  67/1/44 19/3/31 43/4/44
f  66/1/43 67/2/44 43/3/44
f  66/1/43 43/3/44 41/4/43
f  48/1/26 49/4/27 6/2/26
f  49/4/27 9/3/27 6/2/26
f  64/1/41 45/4/23 1/3/23
f  64/1/41 1/3/23 37/2/41
f  50/1/28 63/4/40 35/3/40
f  50/1/28 35/3/40 10/2/28
f  68/1/45 64/4/45 69/2/46
f  64/4/45 62/3/46 69/2/46
f  63/3/47 70/2/47 62/4/46
f  70/2/47 69/1/46 62/4/46
f  45/1/48 71/2/49 46/3/50
f  46/1/50 72/2/51 65/3/52
f  46/1/50 73/2/53 72/3/51
f  72/1/51 74/2/54 65/4/52
f  74/2/54 66/3/55 65/4/52
f  75/1/56 61/3/57 60/2/58
f  76/1/59 47/2/60 61/3/57
f  77/1/61 76/4/59 61/3/57
f  77/1/61 61/3/57 75/2/56
f  78/1/62 60/2/58 59/3/63
f  79/1/64 78/4/62 59/3/63
f  79/1/64 59/3/63 52/2/65
f  80/1/66 81/2/67 51/3/68
f  80/1/66 51/3/68 57/4/69
f  82/1/70 80/2/66 57/3/69
f  82/1/70 57/3/69 56/4/71
f  83/1/72 82/2/70 56/3/71
f  83/1/72 56/3/71 55/4/73
f  84/1/74 83/2/72 54/4/75
f  83/2/72 55/3/73 54/4/75
f  85/1/76 84/2/74 53/4/77
f  84/2/74 54/3/75 53/4/77
f  86/1/78 85/2/76 67/4/79
f  85/2/76 53/3/77 67/4/79
f  74/1/54 86/2/78 66/4/55
f  86/2/78 67/3/79 66/4/55
f  79/1/64 52/4/65 81/2/67
f  52/4/65 51/3/68 81/2/67
f  87/1/80 88/2/81 80/4/66
f  88/2/81 81/3/67 80/4/66
f  89/1/82 87/2/80 82/4/70
f  87/2/80 80/3/66 82/4/70
f  90/1/83 89/2/82 83/4/72
f  89/2/82 82/3/70 83/4/72
f  91/1/84 90/2/83 83/3/72
f  91/1/84 83/3/72 84/4/74
f  92/1/85 91/2/84 84/3/74
f  92/1/85 84/3/74 85/4/76
f  93/1/86 92/2/85 85/3/76
f  93/1/86 85/3/76 86/4/78
f  94/1/87 93/2/86 86/3/78
f  94/1/87 86/3/78 74/4/54
f  73/1/53 94/2/87 74/3/54
f  73/1/53 74/3/54 72/4/51
f  75/1/56 60/4/58 78/3/62
f  75/1/56 78/3/62 95/2/88
f  96/1/89 95/2/88 79/4/64
f  95/2/88 78/3/62 79/4/64
f  96/1/89 79/4/64 81/3/67
f  96/1/89 81/3/67 88/2/81
f  97/1/90 98/2/91 88/3/81
f  97/1/90 88/3/81 87/4/80
f  99/1/92 97/2/90 87/3/80
f  99/1/92 87/3/80 89/4/82
f  100/1/93 99/2/92 89/3/82
f  100/1/93 89/3/82 90/4/83
f  101/1/94 100/2/93 91/4/84
f  100/2/93 90/3/83 91/4/84
f  102/1/95 101/2/94 92/4/85
f  101/2/94 91/3/84 92/4/85
f  103/1/96 102/2/95 93/4/86
f  102/2/95 92/3/85 93/4/86
f  104/1/97 103/2/96 94/4/87
f  103/2/96 93/3/86 94/4/87
f  105/1/98 104/2/97 73/4/53
f  104/2/97 94/3/87 73/4/53
f  71/1/49 105/2/98 46/4/50
f  105/2/98 73/3/53 46/4/50
f  77/1/61 75/4/56 106/2/99
f  75/4/56 95/3/88 106/2/99
f  107/1/100 106/2/99 95/3/88
f  107/1/100 95/3/88 96/4/89
f  88/3/81 98/2/91 96/4/89
f  98/2/91 107/1/100 96/4/89
f  98/3/91 97/4/90 108/2/19
f  97/4/90 109/1/17 108/2/19
f  110/1/18 109/2/17 99/4/92
f  109/2/17 97/3/90 99/4/92
f  111/1/6 110/2/18 100/4/93
f  110/2/18 99/3/92 100/4/93
f  112/1/5 111/2/6 101/4/94
f  111/2/6 100/3/93 101/4/94
f  113/1/4 112/2/5 102/4/95
f  112/2/5 101/3/94 102/4/95
f  114/1/101 113/2/4 103/4/96
f  113/2/4 102/3/95 103/4/96
f  115/1/102 114/2/101 104/4/97
f  114/2/101 103/3/96 104/4/97
f  116/1/103 115/2/102 105/4/98
f  115/2/102 104/3/97 105/4/98
f  117/1/104 116/2/103 71/4/49
f  116/2/103 105/3/98 71/4/49
f  118/1/105 117/2/104 45/4/48
f  117/2/104 71/3/49 45/4/48
f  118/1/105 45/4/48 68/2/45
f  45/4/48 64/3/45 68/2/45
f  70/1/47 63/4/47 119/2/106
f  63/4/47 50/3/106 119/2/106
f  120/1/107 119/2/106 49/4/107
f  119/2/106 50/3/106 49/4/107
f  120/1/107 49/4/107 121/2/108
f  49/4/107 48/3/108 121/2/108
f  122/1/109 121/2/108 47/4/60
f  121/2/108 48/3/108 47/4/60
f  122/1/109 47/4/60 123/2/110
f  47/4/60 76/3/59 123/2/110
f  123/1/110 76/4/59 124/2/111
f  76/4/59 77/3/61 124/2/111
f  124/1/111 77/4/61 125/2/112
f  77/4/61 106/3/99 125/2/112
f  126/1/1 125/2/112 107/4/100
f  125/2/112 106/3/99 107/4/100
f  98/3/91 108/2/19 107/4/100
f  108/2/19 126/1/1 107/4/100

