ply
format ascii 1.0
comment Created by Blender 2.66 (sub 1) - www.blender.org, source file: ''
element vertex 309
property float x
property float y
property float z
property float nx
property float ny
property float nz
property float s
property float t
element face 103
property list uchar uint vertex_indices
end_header
-29.647606 25.563107 -11.269409 0.881179 0.303610 0.362415 0.487441 1.000000
-31.694765 21.123150 -2.572380 0.881179 0.303610 0.362415 1.000000 0.000000
-27.663500 24.474600 -15.181700 0.881179 0.303610 0.362415 0.000000 0.000000
22.127899 25.563101 21.688499 -0.878879 -0.006040 -0.477007 1.000000 0.000000
30.303421 25.563103 6.625214 -0.878879 -0.006040 -0.477007 1.000000 1.000000
24.786499 9.017029 16.999573 -0.878879 -0.006040 -0.477007 0.000000 0.357875
-22.801910 7.932480 18.691193 0.575991 0.123296 -0.808104 0.000000 0.000000
-18.916599 25.563101 24.150499 0.575991 0.123296 -0.808104 0.000000 1.000000
-11.067900 25.563101 29.744801 0.575991 0.123296 -0.808104 1.000000 1.000000
-6.947159 3.251091 25.908279 0.458939 0.232220 -0.857583 1.000000 0.000000
-22.801910 7.932480 18.691193 0.458939 0.232220 -0.857583 0.000000 0.000000
-11.067900 25.563101 29.744801 0.458939 0.232220 -0.857583 1.000000 1.000000
-6.947159 3.251091 25.908279 0.175913 0.198287 -0.964229 0.483139 0.000000
-11.067900 25.563101 29.744801 0.175913 0.198287 -0.964229 0.000000 1.000000
-2.329620 25.563101 31.339001 0.175913 0.198287 -0.964229 1.000000 1.000000
6.590210 25.563101 30.804001 -0.330130 0.206940 -0.920972 0.000000 1.000000
14.969000 5.012970 23.183001 -0.330130 0.206940 -0.920972 1.000000 0.000000
6.590210 3.310910 25.804001 -0.330130 0.206940 -0.920972 0.000000 0.000000
6.590210 25.563101 30.804001 -0.290810 0.226193 -0.929659 0.000000 1.000000
14.969000 25.563101 28.183001 -0.290810 0.226193 -0.929659 1.000000 1.000000
14.969000 5.012970 23.183001 -0.290810 0.226193 -0.929659 1.000000 0.000000
14.969000 25.563101 28.183001 -0.578055 0.192910 -0.792867 0.000000 1.000000
24.786499 9.017029 16.999573 -0.578055 0.192910 -0.792867 1.000000 0.000000
14.969000 5.012970 23.183001 -0.578055 0.192910 -0.792867 0.000000 0.000000
14.969000 25.563101 28.183001 -0.668439 0.101401 -0.736822 0.000000 1.000000
22.127899 25.563101 21.688499 -0.668439 0.101401 -0.736822 1.000000 1.000000
24.786499 9.017029 16.999573 -0.668439 0.101401 -0.736822 1.000000 0.000000
30.303421 25.563103 6.625214 -0.936075 0.100779 -0.337057 1.000000 0.802379
31.457987 19.122879 1.493134 -0.936075 0.100779 -0.337057 0.473609 1.000000
24.786499 9.017029 16.999573 -0.936075 0.100779 -0.337057 0.000000 0.000000
30.303421 25.563103 6.625214 -0.987709 -0.153470 -0.029616 0.000000 1.000000
30.736881 25.563097 -7.830688 -0.987709 -0.153470 -0.029616 1.000000 1.000000
31.457987 19.122879 1.493134 -0.987709 -0.153470 -0.029616 0.473609 0.000000
30.736881 25.563097 -7.830688 -0.637850 -0.655605 0.404140 0.000000 1.000000
22.828751 24.515873 -22.010834 -0.637850 -0.655605 0.404140 1.000000 0.000000
30.322239 23.829094 -11.298050 -0.637850 -0.655605 0.404140 0.000000 0.000000
30.736881 25.563097 -7.830688 -0.798704 -0.372062 0.472907 0.000000 1.000000
21.644562 25.563110 -23.186920 -0.798704 -0.372062 0.472907 1.000000 1.000000
22.828751 24.515873 -22.010834 -0.798704 -0.372062 0.472907 1.000000 0.000000
30.736881 25.563097 -7.830688 -0.994235 0.035270 0.101256 0.579504 0.420496
30.322239 23.829094 -11.298050 -0.994235 0.035270 0.101256 1.000000 1.000000
31.457987 19.122879 1.493134 -0.994235 0.035270 0.101256 0.000000 0.000000
-6.766670 24.474600 -30.824900 0.330878 0.570532 0.751673 1.000000 0.000000
-11.130371 25.563105 -29.730240 0.330878 0.570532 0.751673 0.500026 1.000000
-19.018951 24.464146 -25.423645 0.330878 0.570532 0.751673 0.000000 0.000000
-19.018951 24.464146 -25.423645 0.453826 -0.568435 0.686239 0.500721 0.000000
-11.130371 25.563105 -29.730240 0.453826 -0.568435 0.686239 1.000000 1.000000
-22.304399 25.563101 -22.340599 0.453826 -0.568435 0.686239 0.000000 1.000000
-29.647606 25.563107 -11.269409 0.953200 -0.292935 0.074823 0.000000 1.000000
-31.057705 25.563103 6.694511 0.953200 -0.292935 0.074823 1.000000 1.000000
-31.694765 21.123150 -2.572380 0.953200 -0.292935 0.074823 0.517992 0.000000
-31.057705 25.563103 6.694511 0.987421 0.105020 -0.118198 0.616007 1.000000
-29.525700 14.051600 9.264720 0.987421 0.105020 -0.118198 1.000000 0.000000
-31.694765 21.123150 -2.572380 0.987421 0.105020 -0.118198 0.000000 0.000000
-2.329620 25.563101 31.339001 -0.008533 0.238153 -0.971190 0.000000 1.000000
6.590210 3.310910 25.804001 -0.008533 0.238153 -0.971190 1.000000 0.000000
-6.947159 3.251091 25.908279 -0.008533 0.238153 -0.971190 0.000000 0.000000
-2.329620 25.563101 31.339001 -0.058420 0.218856 -0.974007 0.000000 1.000000
6.590210 25.563101 30.804001 -0.058420 0.218856 -0.974007 1.000000 1.000000
6.590210 3.310910 25.804001 -0.058420 0.218856 -0.974007 1.000000 0.000000
-31.057705 25.563103 6.694511 0.820947 -0.004108 -0.570990 0.000000 1.000000
-18.916599 25.563101 24.150499 0.820947 -0.004108 -0.570990 1.000000 1.000000
-22.801910 7.932480 18.691193 0.820947 -0.004108 -0.570990 0.460812 0.000000
-31.057705 25.563103 6.694511 0.806227 -0.024678 -0.591092 0.069693 1.000000
-22.801910 7.932480 18.691193 0.806227 -0.024678 -0.591092 1.000000 0.000000
-29.525700 14.051600 9.264720 0.806227 -0.024678 -0.591092 0.000000 0.000000
21.644562 25.563110 -23.186920 -0.477634 0.359949 0.801438 1.000000 0.000000
10.817688 25.547142 -29.632248 -0.477634 0.359949 0.801438 0.985339 1.000000
22.828751 24.515873 -22.010834 -0.477634 0.359949 0.801438 0.000000 0.000000
-22.304399 25.563101 -22.340599 0.690051 0.430257 0.581987 1.000000 0.000000
-27.663500 24.474600 -15.181700 0.690051 0.430257 0.581987 0.000000 1.000000
-19.018951 24.464146 -25.423645 0.690051 0.430257 0.581987 0.500721 0.000000
-22.304399 25.563101 -22.340599 0.754892 -0.423602 0.500699 1.000000 0.000000
-29.647606 25.563107 -11.269409 0.754892 -0.423602 0.500699 1.000000 1.000000
-27.663500 24.474600 -15.181700 0.754892 -0.423602 0.500699 0.000000 1.000000
2.154991 25.552404 -31.489746 0.118387 -0.426958 0.896488 0.990173 0.000000
-11.130371 25.563105 -29.730240 0.118387 -0.426958 0.896488 0.500026 1.000000
-6.766670 24.474600 -30.824900 0.118387 -0.426958 0.896488 0.000000 1.000000
-31.694765 21.123150 -2.572380 -0.177137 -0.943510 -0.280021 1.000000 1.000000
-32.404400 22.591000 -7.069290 -0.177137 -0.943510 -0.280021 1.000000 0.000000
-29.114799 24.591000 -15.889100 -0.177137 -0.943510 -0.280021 0.000000 0.000000
-27.663500 24.474600 -15.181700 0.041365 -0.968822 -0.244280 0.000000 1.000000
-31.694765 21.123150 -2.572380 0.041365 -0.968822 -0.244280 1.000000 1.000000
-29.114799 24.591000 -15.889100 0.041365 -0.968822 -0.244280 0.000000 0.000000
22.828751 24.515873 -22.010834 0.066182 -0.995008 -0.074695 0.418508 1.000000
15.149048 24.584225 -29.725815 0.066182 -0.995008 -0.074695 1.000000 0.000000
26.387300 24.591000 -19.858601 0.066182 -0.995008 -0.074695 0.000000 0.000000
10.817688 25.547142 -29.632248 -0.139304 -0.695140 0.705248 0.985339 1.000000
-2.460693 24.572744 -33.215485 -0.139304 -0.695140 0.705248 1.000000 0.000000
15.149048 24.584225 -29.725815 -0.139304 -0.695140 0.705248 0.000000 0.000000
10.817688 25.547142 -29.632248 -0.169486 -0.590895 0.788745 0.985339 1.000000
2.154991 25.552404 -31.489746 -0.169486 -0.590895 0.788745 1.000000 1.000000
-2.460693 24.572744 -33.215485 -0.169486 -0.590895 0.788745 1.000000 0.000000
24.786499 9.017029 16.999573 0.044564 -0.853422 -0.519313 1.000000 0.357875
28.840149 11.097656 13.928192 0.044564 -0.853422 -0.519313 0.000000 1.008126
19.264679 5.101479 22.960419 0.044564 -0.853422 -0.519313 0.000000 0.000000
-6.947159 3.251091 25.908279 0.014369 -0.823370 -0.567322 1.000000 1.000000
-7.155701 2.209730 27.414352 0.014369 -0.823370 -0.567322 1.000000 0.000000
-23.130157 6.758774 20.407608 0.014369 -0.823370 -0.567322 0.000000 0.000000
-22.801910 7.932480 18.691193 0.012168 -0.826482 -0.562832 0.000000 1.000000
-6.947159 3.251091 25.908279 0.012168 -0.826482 -0.562832 1.000000 1.000000
-23.130157 6.758774 20.407608 0.012168 -0.826482 -0.562832 0.000000 0.000000
6.590210 3.310910 25.804001 -0.010238 -0.824959 -0.565100 0.000000 1.000000
19.264679 5.101479 22.960419 -0.010238 -0.824959 -0.565100 1.000000 0.000000
6.941700 2.313430 27.253799 -0.010238 -0.824959 -0.565100 0.000000 0.000000
6.590210 3.310910 25.804001 -0.012861 -0.819297 -0.573225 0.000000 1.000000
14.969000 5.012970 23.183300 -0.012861 -0.819297 -0.573225 1.000000 1.000000
19.264679 5.101479 22.960419 -0.012861 -0.819297 -0.573225 1.000000 0.000000
14.969000 5.012970 23.183300 -0.011762 -0.830715 -0.556574 0.000000 1.000000
24.786499 9.017029 16.999573 -0.011762 -0.830715 -0.556574 1.000000 1.000000
19.264679 5.101479 22.960419 -0.011762 -0.830715 -0.556574 0.414402 0.000000
24.786499 9.017029 16.999573 0.018037 -0.838675 -0.544333 1.000000 0.000000
32.239906 16.707260 5.397919 0.018037 -0.838675 -0.544333 0.000000 1.000000
28.840149 11.097656 13.928192 0.018037 -0.838675 -0.544333 0.000000 0.000000
24.786499 9.017029 16.999573 0.044378 -0.845586 -0.531992 1.000000 0.000000
31.457987 19.122879 1.493134 0.044378 -0.845586 -0.531992 1.000000 1.000000
32.239906 16.707260 5.397919 0.044378 -0.845586 -0.531992 0.000000 1.000000
31.457987 19.122879 1.493134 -0.332483 -0.830384 -0.447122 0.473609 1.000000
32.899441 20.806961 -2.706375 -0.332483 -0.830384 -0.447122 1.008074 0.000000
32.239906 16.707260 5.397919 -0.332483 -0.830384 -0.447122 0.000000 0.000000
30.322239 23.829094 -11.298050 0.102300 -0.985586 -0.134742 0.000000 0.431874
22.828751 24.515873 -22.010834 0.102300 -0.985586 -0.134742 1.000000 1.000000
26.387300 24.591000 -19.858601 0.102300 -0.985586 -0.134742 1.000000 0.000000
31.457987 19.122879 1.493134 0.071542 -0.934014 -0.350001 0.000000 1.000000
30.322239 23.829094 -11.298050 0.071542 -0.934014 -0.350001 1.000000 0.568126
32.899441 20.806961 -2.706375 0.071542 -0.934014 -0.350001 0.000000 0.000000
-2.460693 24.572744 -33.215485 -0.022120 -0.997898 -0.060915 1.000000 0.000000
-19.018951 24.464146 -25.423645 -0.022120 -0.997898 -0.060915 0.000000 1.000000
-19.395386 24.584288 -27.255081 -0.022120 -0.997898 -0.060915 0.000000 0.000000
-2.460693 24.572744 -33.215485 -0.081956 -0.978781 -0.187804 1.000000 0.000000
-6.766670 24.474600 -30.824900 -0.081956 -0.978781 -0.187804 1.000000 1.000000
-19.018951 24.464146 -25.423645 -0.081956 -0.978781 -0.187804 0.000000 1.000000
-31.694765 21.123150 -2.572380 0.415689 -0.843227 -0.340838 0.517992 1.000000
-33.075722 18.861176 1.339478 0.415689 -0.843227 -0.340838 1.000000 0.000000
-32.404400 22.591000 -7.069290 0.415689 -0.843227 -0.340838 0.000000 0.000000
-29.525700 14.051600 9.264720 0.015349 -0.851727 -0.523761 1.000000 1.000000
-31.006546 13.483002 10.145966 0.015349 -0.851727 -0.523761 1.000000 0.000000
-33.075722 18.861176 1.339478 0.015349 -0.851727 -0.523761 0.000000 0.000000
-31.694765 21.123150 -2.572380 -0.030763 -0.860539 -0.508454 0.000000 1.000000
-29.525700 14.051600 9.264720 -0.030763 -0.860539 -0.508454 1.000000 1.000000
-33.075722 18.861176 1.339478 -0.030763 -0.860539 -0.508454 0.000000 0.000000
-6.947159 3.251091 25.908279 -0.000427 -0.822498 -0.568768 0.000000 1.000000
6.941700 2.313430 27.253799 -0.000427 -0.822498 -0.568768 1.000000 0.000000
-7.155701 2.209730 27.414352 -0.000427 -0.822498 -0.568768 0.000000 0.000000
-6.947159 3.251091 25.908279 -0.000725 -0.823926 -0.566696 0.000000 1.000000
6.590210 3.310910 25.804001 -0.000725 -0.823926 -0.566696 1.000000 1.000000
6.941700 2.313430 27.253799 -0.000725 -0.823926 -0.566696 1.000000 0.000000
-22.801910 7.932480 18.691193 0.024624 -0.827398 -0.561076 1.000000 1.000000
-23.130157 6.758774 20.407608 0.024624 -0.827398 -0.561076 1.000000 0.000000
-31.006546 13.483002 10.145966 0.024624 -0.827398 -0.561076 0.000000 0.000000
-29.525700 14.051600 9.264720 -0.001374 -0.839219 -0.543792 0.000000 1.000000
-22.801910 7.932480 18.691193 -0.001374 -0.839219 -0.543792 1.000000 1.000000
-31.006546 13.483002 10.145966 -0.001374 -0.839219 -0.543792 0.000000 0.000000
22.828751 24.515873 -22.010834 -0.208568 -0.957521 0.199131 0.418508 0.000000
10.817688 25.547142 -29.632248 -0.208568 -0.957521 0.199131 1.000000 1.000000
15.149048 24.584225 -29.725815 -0.208568 -0.957521 0.199131 0.409295 1.000000
-27.663500 24.474600 -15.181700 -0.056655 -0.997246 -0.047859 1.000000 1.000000
-29.114799 24.591000 -15.889100 -0.056655 -0.997246 -0.047859 0.000000 1.000000
-19.395386 24.584288 -27.255081 -0.056655 -0.997246 -0.047859 0.590680 0.000000
-19.018951 24.464146 -25.423645 -0.063260 -0.996622 -0.052376 1.000000 0.000000
-27.663500 24.474600 -15.181700 -0.063260 -0.996622 -0.052376 1.000000 1.000000
-19.395386 24.584288 -27.255081 -0.063260 -0.996622 -0.052376 0.590680 0.000000
2.154991 25.552404 -31.489746 0.132093 -0.971249 0.198056 1.000000 0.990173
-6.766670 24.474600 -30.824900 0.132093 -0.971249 0.198056 1.000000 1.000000
-2.460693 24.572744 -33.215485 0.132093 -0.971249 0.198056 0.000000 0.499966
-12.553741 25.791016 -30.991920 -0.426089 0.720164 -0.547551 1.000000 0.000000
-19.395386 24.584288 -27.255081 -0.426089 0.720164 -0.547551 0.590680 1.000000
-26.714844 25.790991 -19.972168 -0.426089 0.720164 -0.547551 0.000000 0.000000
-19.395386 24.584288 -27.255081 -0.231184 -0.718988 -0.655447 0.000000 1.000000
-12.553741 25.791016 -30.991920 -0.231184 -0.718988 -0.655447 0.408346 0.000000
-2.460693 24.572744 -33.215485 -0.231184 -0.718988 -0.655447 1.000000 1.000000
-32.404400 22.591000 -7.069290 -0.936950 -0.000003 -0.349463 1.000000 1.000000
-32.404404 25.791000 -7.069305 -0.936950 -0.000003 -0.349463 1.000000 0.000000
-29.114799 24.591000 -15.889100 -0.936950 -0.000003 -0.349463 0.000000 0.000000
-33.075722 18.861176 1.339478 -0.997169 0.012191 -0.074202 1.000000 1.000000
-33.083168 25.790905 2.578056 -0.997169 0.012191 -0.074202 1.000000 0.000000
-32.404400 22.591000 -7.069290 -0.997169 0.012191 -0.074202 0.000000 0.000000
30.322239 23.829094 -11.298050 0.857082 -0.297695 -0.420461 1.000000 0.568126
26.387300 24.591000 -19.858601 0.857082 -0.297695 -0.420461 1.000000 0.000000
30.898270 25.790901 -11.512848 0.857082 -0.297695 -0.420461 0.000000 0.000000
30.322239 23.829094 -11.298050 0.933219 -0.296272 -0.203285 1.000000 0.568126
30.898270 25.790901 -11.512848 0.933219 -0.296272 -0.203285 0.000000 0.000083
32.895897 25.790983 -2.342468 0.933219 -0.296272 -0.203285 0.000000 0.000000
32.899441 20.806961 -2.706375 0.959645 0.021157 -0.280418 1.000000 0.000000
30.322239 23.829094 -11.298050 0.959645 0.021157 -0.280418 1.000000 0.568126
32.895897 25.790983 -2.342468 0.959645 0.021157 -0.280418 0.000000 0.000000
19.264679 5.101479 22.960419 0.603545 -0.196531 0.772728 0.414402 1.000000
23.282074 17.413330 22.953918 0.603545 -0.196531 0.772728 1.000000 0.000000
15.806885 15.848694 28.394531 0.603545 -0.196531 0.772728 0.000000 0.000000
19.264679 5.101479 22.960419 0.353644 -0.328961 0.875626 1.000000 1.000000
15.806885 15.848694 28.394531 0.353644 -0.328961 0.875626 1.000000 0.000000
7.010666 14.884674 31.584946 0.353644 -0.328961 0.875626 0.000000 0.000000
6.941700 2.313430 27.253799 0.374035 -0.303927 0.876200 0.000000 1.000000
19.264679 5.101479 22.960419 0.374035 -0.303927 0.876200 1.000000 1.000000
7.010666 14.884674 31.584946 0.374035 -0.303927 0.876200 0.000000 0.000000
6.941700 2.313430 27.253799 0.080080 -0.325084 0.942288 1.000000 1.000000
7.010666 14.884674 31.584946 0.080080 -0.325084 0.942288 1.000000 0.000000
-2.442238 14.053223 32.101456 0.080080 -0.325084 0.942288 0.000000 0.000000
-7.155701 2.209730 27.414352 0.013308 -0.372526 0.927926 0.000000 1.000000
6.941700 2.313430 27.253799 0.013308 -0.372526 0.927926 1.000000 1.000000
-2.442238 14.053223 32.101456 0.013308 -0.372526 0.927926 0.000000 0.000000
-7.155701 2.209730 27.414352 -0.219666 -0.282164 0.933879 0.500424 1.000000
-2.442238 14.053223 32.101456 -0.219666 -0.282164 0.933879 1.000000 0.000000
-11.707886 15.281464 30.293106 -0.219666 -0.282164 0.933879 0.000000 0.000000
-23.130157 6.758774 20.407608 -0.483271 -0.304411 0.820843 0.000000 1.000000
-11.707886 15.281464 30.293106 -0.483271 -0.304411 0.820843 1.000000 0.000000
-19.927460 16.565735 25.930115 -0.483271 -0.304411 0.820843 0.000000 0.000000
-23.130157 6.758774 20.407608 -0.457285 -0.340203 0.821676 0.000000 1.000000
-7.155701 2.209730 27.414352 -0.457285 -0.340203 0.821676 1.000000 1.000000
-11.707886 15.281464 30.293106 -0.457285 -0.340203 0.821676 1.000000 0.000000
-23.130157 6.758774 20.407608 -0.710131 -0.154857 0.686828 0.583497 1.000000
-19.927460 16.565735 25.930115 -0.710131 -0.154857 0.686828 1.000000 0.000000
-26.505432 18.285522 19.516724 -0.710131 -0.154857 0.686828 0.000000 0.000000
-31.006546 13.483002 10.145966 -0.836769 -0.205807 0.507407 0.000000 1.012864
-23.130157 6.758774 20.407608 -0.836769 -0.205807 0.507407 1.000000 1.000000
-26.505432 18.285522 19.516724 -0.836769 -0.205807 0.507407 1.000000 0.000000
23.282074 17.413330 22.953918 0.741613 -0.241660 0.625788 1.000000 0.000000
19.264679 5.101479 22.960419 0.741613 -0.241660 0.625788 0.414402 1.000000
28.840149 11.097656 13.928192 0.741613 -0.241660 0.625788 0.000000 1.008126
-33.075722 18.861176 1.339478 -0.977702 -0.037966 0.206536 0.000000 1.000000
-31.006546 13.483002 10.145966 -0.977702 -0.037966 0.206536 1.000000 0.338382
-33.083168 25.790905 2.578056 -0.977702 -0.037966 0.206536 0.000000 0.000000
32.221207 25.790745 7.318604 0.997147 -0.013646 0.074245 1.000000 0.000000
32.239906 16.707260 5.397919 0.997147 -0.013646 0.074245 1.000000 1.000000
32.899441 20.806961 -2.706375 0.997147 -0.013646 0.074245 0.000000 1.008074
28.840149 11.097656 13.928192 0.941358 -0.067945 0.330498 0.000000 0.341326
32.239906 16.707260 5.397919 0.941358 -0.067945 0.330498 1.000000 1.000000
32.221207 25.790745 7.318604 0.941358 -0.067945 0.330498 1.000000 0.000000
23.282074 17.413330 22.953918 0.599435 -0.039860 0.799430 1.000000 1.000000
23.309814 25.791004 23.350830 0.599435 -0.039860 0.799430 1.000000 0.000000
15.783875 25.790972 28.993988 0.599435 -0.039860 0.799430 0.000000 0.000000
15.806885 15.848694 28.394531 0.594228 -0.047036 0.802920 0.000000 1.000000
23.282074 17.413330 22.953918 0.594228 -0.047036 0.802920 1.000000 1.000000
15.783875 25.790972 28.993988 0.594228 -0.047036 0.802920 0.000000 0.000000
15.806885 15.848694 28.394531 0.349781 -0.055576 0.935182 1.000000 1.000000
15.783875 25.790972 28.993988 0.349781 -0.055576 0.935182 1.000000 0.000000
6.971161 25.790960 32.290161 0.349781 -0.055576 0.935182 0.000000 0.000000
7.010666 14.884674 31.584946 0.346104 -0.059290 0.936321 0.000000 1.000000
15.806885 15.848694 28.394531 0.346104 -0.059290 0.936321 1.000000 1.000000
6.971161 25.790960 32.290161 0.346104 -0.059290 0.936321 0.000000 0.000000
7.010666 14.884674 31.584946 0.072160 -0.064098 0.995331 1.000000 1.000000
6.971161 25.790960 32.290161 0.072160 -0.064098 0.995331 1.000000 0.000000
-2.447144 25.790966 32.972977 0.072160 -0.064098 0.995331 0.000000 0.000000
-2.442238 14.053223 32.101456 0.060888 -0.073883 0.995406 0.000000 1.000000
7.010666 14.884674 31.584946 0.060888 -0.073883 0.995406 1.000000 1.000000
-2.447144 25.790966 32.972977 0.060888 -0.073883 0.995406 0.000000 0.000000
-11.707886 15.281464 30.293106 -0.213102 -0.060873 0.975132 0.000000 1.000000
-2.447144 25.790966 32.972977 -0.213102 -0.060873 0.975132 1.000000 0.000000
-11.672028 25.790970 30.957001 -0.213102 -0.060873 0.975132 0.000000 0.000000
-11.707886 15.281464 30.293106 -0.200313 -0.072628 0.977036 0.000000 1.000000
-2.442238 14.053223 32.101456 -0.200313 -0.072628 0.977036 1.000000 1.000000
-2.447144 25.790966 32.972977 -0.200313 -0.072628 0.977036 1.000000 0.000000
-19.927460 16.565735 25.930115 -0.479431 -0.048439 0.876242 0.000000 1.000000
-11.672028 25.790970 30.957001 -0.479431 -0.048439 0.876242 1.000000 0.000000
-19.925049 25.790998 26.441406 -0.479431 -0.048439 0.876242 0.000000 0.000000
-19.927460 16.565735 25.930115 -0.474722 -0.053875 0.878485 0.000000 1.000000
-11.707886 15.281464 30.293106 -0.474722 -0.053875 0.878485 1.000000 1.000000
-11.672028 25.790970 30.957001 -0.474722 -0.053875 0.878485 1.000000 0.000000
-26.505432 18.285522 19.516724 -0.707236 -0.031555 0.706273 0.000000 1.000000
-19.925049 25.790998 26.441406 -0.707236 -0.031555 0.706273 1.000000 0.000000
-26.571808 25.790995 19.785583 -0.707236 -0.031555 0.706273 0.000000 0.000000
-26.505432 18.285522 19.516724 -0.702790 -0.039184 0.710317 0.000000 1.000000
-19.927460 16.565735 25.930115 -0.702790 -0.039184 0.710317 1.000000 1.000000
-19.925049 25.790998 26.441406 -0.702790 -0.039184 0.710317 1.000000 0.000000
-31.006546 13.483002 10.145966 -0.876379 -0.058629 0.478039 0.000000 1.000000
-26.571808 25.790995 19.785583 -0.876379 -0.058629 0.478039 1.000000 0.000000
-31.076538 25.791006 11.527161 -0.876379 -0.058629 0.478039 0.000000 0.000000
-31.006546 13.483002 10.145966 -0.896338 -0.023786 0.442734 0.000000 1.000000
-26.505432 18.285522 19.516724 -0.896338 -0.023786 0.442734 1.000000 1.000000
-26.571808 25.790995 19.785583 -0.896338 -0.023786 0.442734 1.000000 0.000000
-33.083168 25.790905 2.578056 -0.975329 -0.030088 0.218695 0.000000 0.944640
-31.006546 13.483002 10.145966 -0.975329 -0.030088 0.218695 1.000000 1.000000
-31.076538 25.791006 11.527161 -0.975329 -0.030088 0.218695 1.000000 0.000000
-32.404400 22.591000 -7.069290 -0.997534 -0.000002 -0.070184 0.000000 1.000000
-33.083168 25.790905 2.578056 -0.997534 -0.000002 -0.070184 1.000000 0.944640
-32.404404 25.791000 -7.069305 -0.997534 -0.000002 -0.070184 0.000000 0.000000
32.221207 25.790745 7.318604 0.997561 -0.004377 0.069666 1.000000 -0.001704
32.899441 20.806961 -2.706375 0.997561 -0.004377 0.069666 0.000000 1.000000
32.895897 25.790983 -2.342468 0.997561 -0.004377 0.069666 0.000000 0.000000
28.840149 11.097656 13.928192 0.931691 -0.052717 0.359405 0.000000 1.000000
32.221207 25.790745 7.318604 0.931691 -0.052717 0.359405 1.000000 -0.001704
28.942627 25.790985 15.817749 0.931691 -0.052717 0.359405 0.000000 0.000000
28.840149 11.097656 13.928192 0.842196 -0.028298 0.538429 0.000000 1.000000
23.309814 25.791004 23.350830 0.842196 -0.028298 0.538429 1.000000 0.000000
23.282074 17.413330 22.953918 0.842196 -0.028298 0.538429 1.000000 1.000000
28.840149 11.097656 13.928192 0.798149 -0.082316 0.596811 0.000000 1.000000
28.942627 25.790985 15.817749 0.798149 -0.082316 0.596811 0.000000 0.000000
23.309814 25.791004 23.350830 0.798149 -0.082316 0.596811 1.000000 0.000000
-29.114799 24.591000 -15.889100 -0.832168 0.415748 -0.366947 0.000000 1.000000
-32.404404 25.791000 -7.069305 -0.832168 0.415748 -0.366947 1.000000 0.000000
-26.714844 25.790991 -19.972168 -0.832168 0.415748 -0.366947 0.500031 0.000000
-26.714844 25.790991 -19.972168 -0.625668 -0.568016 -0.534694 0.500031 0.000000
-19.395386 24.584288 -27.255081 -0.625668 -0.568016 -0.534694 1.000000 1.000000
-29.114799 24.591000 -15.889100 -0.625668 -0.568016 -0.534694 0.000000 1.000000
6.159119 25.790998 -32.817802 -0.068257 0.711315 -0.699551 0.591681 0.000000
-2.460693 24.572744 -33.215485 -0.068257 0.711315 -0.699551 0.500034 1.000000
-12.553741 25.791016 -30.991920 -0.068257 0.711315 -0.699551 0.000000 0.000000
15.149048 24.584225 -29.725815 0.133853 -0.727372 -0.673063 0.409295 1.000000
-2.460693 24.572744 -33.215485 0.133853 -0.727372 -0.673063 0.500034 1.000000
6.159119 25.790998 -32.817802 0.133853 -0.727372 -0.673063 0.591681 0.000000
22.888916 25.790993 -24.236572 0.303942 0.745984 -0.592560 0.591656 0.000000
15.149048 24.584225 -29.725815 0.303942 0.745984 -0.592560 0.409295 1.000000
6.159119 25.790998 -32.817802 0.303942 0.745984 -0.592560 0.591681 0.000000
26.387300 24.591000 -19.858601 0.511309 -0.632401 -0.581921 0.000000 1.000000
15.149048 24.584225 -29.725815 0.511309 -0.632401 -0.581921 0.409295 1.000000
22.888916 25.790993 -24.236572 0.511309 -0.632401 -0.581921 0.591656 0.000000
30.898270 25.790901 -11.512848 0.749711 0.463918 -0.471926 1.000000 0.000083
26.387300 24.591000 -19.858601 0.749711 0.463918 -0.471926 0.000000 1.000000
22.888916 25.790993 -24.236572 0.749711 0.463918 -0.471926 0.591656 0.000000
3 0 1 2
3 3 4 5
3 6 7 8
3 9 10 11
3 12 13 14
3 15 16 17
3 18 19 20
3 21 22 23
3 24 25 26
3 27 28 29
3 30 31 32
3 33 34 35
3 36 37 38
3 39 40 41
3 42 43 44
3 45 46 47
3 48 49 50
3 51 52 53
3 54 55 56
3 57 58 59
3 60 61 62
3 63 64 65
3 66 67 68
3 69 70 71
3 72 73 74
3 75 76 77
3 78 79 80
3 81 82 83
3 84 85 86
3 87 88 89
3 90 91 92
3 93 94 95
3 96 97 98
3 99 100 101
3 102 103 104
3 105 106 107
3 108 109 110
3 111 112 113
3 114 115 116
3 117 118 119
3 120 121 122
3 123 124 125
3 126 127 128
3 129 130 131
3 132 133 134
3 135 136 137
3 138 139 140
3 141 142 143
3 144 145 146
3 147 148 149
3 150 151 152
3 153 154 155
3 156 157 158
3 159 160 161
3 162 163 164
3 165 166 167
3 168 169 170
3 171 172 173
3 174 175 176
3 177 178 179
3 180 181 182
3 183 184 185
3 186 187 188
3 189 190 191
3 192 193 194
3 195 196 197
3 198 199 200
3 201 202 203
3 204 205 206
3 207 208 209
3 210 211 212
3 213 214 215
3 216 217 218
3 219 220 221
3 222 223 224
3 225 226 227
3 228 229 230
3 231 232 233
3 234 235 236
3 237 238 239
3 240 241 242
3 243 244 245
3 246 247 248
3 249 250 251
3 252 253 254
3 255 256 257
3 258 259 260
3 261 262 263
3 264 265 266
3 267 268 269
3 270 271 272
3 273 274 275
3 276 277 278
3 279 280 281
3 282 283 284
3 285 286 287
3 288 289 290
3 291 292 293
3 294 295 296
3 297 298 299
3 300 301 302
3 303 304 305
3 306 307 308
