ply
format ascii 1.0
comment Created by Blender 2.66 (sub 1) - www.blender.org, source file: ''
element vertex 12
property float x
property float y
property float z
property float nx
property float ny
property float nz
property float s
property float t
element face 4
property list uchar uint vertex_indices
end_header
12.600000 0.000000 -12.477150 0.408248 0.816497 -0.408249 0.505089 0.166504
-12.600000 12.600000 -12.477100 0.408248 0.816497 -0.408249 0.505089 0.166504
12.600000 12.600000 12.722800 0.408248 0.816497 -0.408249 0.505089 0.166504
-12.600000 12.600000 -12.477100 -0.408247 0.816497 0.408249 0.505089 0.166504
-12.600000 -0.000000 12.722900 -0.408247 0.816497 0.408249 0.505089 0.166504
12.600000 12.600000 12.722800 -0.408247 0.816497 0.408249 0.505089 0.166504
12.600000 12.600000 12.722800 0.801765 -0.534544 0.267273 0.505089 0.166504
-0.000000 -12.598748 0.122900 0.801765 -0.534544 0.267273 0.505089 0.166504
12.600000 0.000000 -12.477150 0.801765 -0.534544 0.267273 0.505089 0.166504
-12.600000 12.600000 -12.477100 -0.801765 -0.534545 -0.267273 0.505089 0.166504
-0.000000 -12.598748 0.122900 -0.801765 -0.534545 -0.267273 0.505089 0.166504
-12.600000 -0.000000 12.722900 -0.801765 -0.534545 -0.267273 0.505089 0.166504
3 0 1 2
3 3 4 5
3 6 7 8
3 9 10 11
