ply
format ascii 1.0
comment Created by Blender 2.66 (sub 1) - www.blender.org, source file: ''
element vertex 132
property float x
property float y
property float z
property float nx
property float ny
property float nz
property float s
property float t
element face 46
property list uchar uint vertex_indices
end_header
-42.699997 1.347969 18.563450 -0.019021 -0.454229 0.890682 0.505089 0.166504
-42.700001 -13.334705 11.075584 -0.019021 -0.454229 0.890682 0.505089 0.166504
8.600000 -12.671724 12.509251 -0.019021 -0.454229 0.890682 0.505089 0.166504
-42.699997 1.347969 18.563450 0.023526 -0.322545 0.946262 0.505089 0.166504
8.600000 -12.671724 12.509251 0.023526 -0.322545 0.946262 0.505089 0.166504
8.600000 3.117271 17.891127 0.023526 -0.322545 0.946262 0.505089 0.166504
-42.700001 14.346779 10.813763 -0.002704 0.512082 0.858932 0.505089 0.166504
-42.699997 1.347969 18.563450 -0.002704 0.512082 0.858932 0.505089 0.166504
8.600000 14.399809 10.943672 -0.002704 0.512082 0.858932 0.505089 0.166504
-42.699997 1.347969 18.563450 -0.006924 0.524323 0.851491 0.505089 0.166504
8.600000 3.117271 17.891127 -0.006924 0.524323 0.851491 0.505089 0.166504
8.600000 14.399809 10.943672 -0.006924 0.524323 0.851491 0.505089 0.166504
8.600000 -12.671724 12.509251 0.013006 -0.999911 -0.002978 0.505089 0.166504
-42.700001 -13.334705 11.075584 0.013006 -0.999911 -0.002978 0.505089 0.166504
-42.696407 -13.244479 -19.208067 0.013006 -0.999911 -0.002978 0.505089 0.166504
8.600000 -12.671724 12.509251 -0.009774 -0.999379 0.033855 0.505089 0.166504
-42.696407 -13.244479 -19.208067 -0.009774 -0.999379 0.033855 0.505089 0.166504
8.600000 -13.651100 -16.401300 -0.009774 -0.999379 0.033855 0.505089 0.166504
-42.700001 14.346779 10.813763 -0.001048 0.999983 0.005663 0.505089 0.166504
8.600000 14.399809 10.943672 -0.001048 0.999983 0.005663 0.505089 0.166504
-42.697464 14.508805 -17.797516 -0.001048 0.999983 0.005663 0.505089 0.166504
8.600000 14.399809 10.943672 -0.001336 0.999980 0.006176 0.505089 0.166504
8.600000 14.568700 -16.401300 -0.001336 0.999980 0.006176 0.505089 0.166504
-42.697464 14.508805 -17.797516 -0.001336 0.999980 0.006176 0.505089 0.166504
-27.131454 12.452835 -20.888367 -0.422353 0.724664 -0.544500 0.505089 0.166504
-26.955215 14.448545 -18.369019 -0.422353 0.724664 -0.544500 0.505089 0.166504
-12.691681 13.239933 -31.041351 -0.422353 0.724664 -0.544500 0.505089 0.166504
-26.955215 14.448545 -18.369019 -0.019505 0.784375 -0.619981 0.505089 0.166504
-27.131454 12.452835 -20.888367 -0.019505 0.784375 -0.619981 0.505089 0.166504
-42.697464 14.508805 -17.797516 -0.019505 0.784375 -0.619981 0.505089 0.166504
-27.131454 12.452835 -20.888367 -0.019089 0.785464 -0.618612 0.505089 0.166504
-42.696701 12.558800 -20.273500 -0.019089 0.785464 -0.618612 0.505089 0.166504
-42.697464 14.508805 -17.797516 -0.019089 0.785464 -0.618612 0.505089 0.166504
-26.955215 14.448545 -18.369019 0.002798 0.998622 -0.052408 0.505089 0.166504
12.952698 13.685383 -30.780258 0.002798 0.998622 -0.052408 0.505089 0.166504
-0.000001 13.595963 -33.175686 0.002798 0.998622 -0.052408 0.505089 0.166504
-26.955215 14.448545 -18.369019 -0.053653 0.986538 -0.154480 0.505089 0.166504
-0.000001 13.595963 -33.175686 -0.053653 0.986538 -0.154480 0.505089 0.166504
-12.691681 13.239933 -31.041351 -0.053653 0.986538 -0.154480 0.505089 0.166504
-26.955215 14.448545 -18.369019 0.001911 0.998471 -0.055251 0.505089 0.166504
24.182306 14.109758 -22.722797 0.001911 0.998471 -0.055251 0.505089 0.166504
12.952698 13.685383 -30.780258 0.001911 0.998471 -0.055251 0.505089 0.166504
8.600000 14.568700 -16.401300 0.000970 0.996922 -0.078400 0.505089 0.166504
-26.955215 14.448545 -18.369019 0.000970 0.996922 -0.078400 0.505089 0.166504
-42.697464 14.508805 -17.797516 0.000970 0.996922 -0.078400 0.505089 0.166504
-27.238991 -11.792667 -20.496468 0.019738 -0.772940 -0.634171 0.505089 0.166504
-26.955246 -13.530947 -18.368988 0.019738 -0.772940 -0.634171 0.505089 0.166504
-42.696407 -13.244479 -19.208067 0.019738 -0.772940 -0.634171 0.505089 0.166504
-13.321716 -12.332062 -30.762848 -0.425100 -0.727884 -0.538029 0.505089 0.166504
-26.955246 -13.530947 -18.368988 -0.425100 -0.727884 -0.538029 0.505089 0.166504
-27.238991 -11.792667 -20.496468 -0.425100 -0.727884 -0.538029 0.505089 0.166504
-12.691681 13.239933 -31.041351 -0.166131 0.011071 -0.986041 0.505089 0.166504
-0.000001 13.595963 -33.175686 -0.166131 0.011071 -0.986041 0.505089 0.166504
0.000001 -12.528587 -33.468994 -0.166131 0.011071 -0.986041 0.505089 0.166504
-12.691681 13.239933 -31.041351 -0.199150 -0.005766 -0.979952 0.505089 0.166504
0.000001 -12.528587 -33.468994 -0.199150 -0.005766 -0.979952 0.505089 0.166504
-13.321716 -12.332062 -30.762848 -0.199150 -0.005766 -0.979952 0.505089 0.166504
-0.000001 13.595963 -33.175686 0.181768 0.011040 -0.983279 0.505089 0.166504
12.952698 13.685383 -30.780258 0.181768 0.011040 -0.983279 0.505089 0.166504
0.000001 -12.528587 -33.468994 0.181768 0.011040 -0.983279 0.505089 0.166504
12.952698 13.685383 -30.780258 0.227515 -0.012548 -0.973694 0.505089 0.166504
12.930847 -12.913425 -30.442596 0.227515 -0.012548 -0.973694 0.505089 0.166504
0.000001 -12.528587 -33.468994 0.227515 -0.012548 -0.973694 0.505089 0.166504
12.952698 13.685383 -30.780258 0.582643 0.011755 -0.812643 0.505089 0.166504
24.182306 14.109758 -22.722797 0.582643 0.011755 -0.812643 0.505089 0.166504
24.181797 -13.082622 -23.116512 0.582643 0.011755 -0.812643 0.505089 0.166504
12.952698 13.685383 -30.780258 0.545516 -0.011087 -0.838027 0.505089 0.166504
24.181797 -13.082622 -23.116512 0.545516 -0.011087 -0.838027 0.505089 0.166504
12.930847 -12.913425 -30.442596 0.545516 -0.011087 -0.838027 0.505089 0.166504
-27.131454 12.452835 -20.888367 -0.575362 0.005268 -0.817882 0.505089 0.166504
-12.691681 13.239933 -31.041351 -0.575362 0.005268 -0.817882 0.505089 0.166504
-13.321716 -12.332062 -30.762848 -0.575362 0.005268 -0.817882 0.505089 0.166504
-27.131454 12.452835 -20.888367 -0.593860 -0.010370 -0.804502 0.505089 0.166504
-13.321716 -12.332062 -30.762848 -0.593860 -0.010370 -0.804502 0.505089 0.166504
-27.238991 -11.792667 -20.496468 -0.593860 -0.010370 -0.804502 0.505089 0.166504
-27.131454 12.452835 -20.888367 -0.039575 -0.015974 -0.999089 0.505089 0.166504
-27.238991 -11.792667 -20.496468 -0.039575 -0.015974 -0.999089 0.505089 0.166504
-42.696701 12.558800 -20.273500 -0.039575 -0.015974 -0.999089 0.505089 0.166504
-27.238991 -11.792667 -20.496468 -0.079157 -0.041127 -0.996013 0.505089 0.166504
-42.696407 -13.244479 -19.208067 -0.079157 -0.041127 -0.996013 0.505089 0.166504
-42.696701 12.558800 -20.273500 -0.079157 -0.041127 -0.996013 0.505089 0.166504
-42.696407 -13.244479 -19.208067 -0.055202 -0.135963 0.989175 0.505089 0.166504
-26.955246 -13.530947 -18.368988 -0.055202 -0.135963 0.989175 0.505089 0.166504
8.600000 -13.651100 -16.401300 -0.055202 -0.135963 0.989175 0.505089 0.166504
0.000001 -12.528587 -33.468994 -0.009997 -0.996417 -0.083990 0.505089 0.166504
12.930847 -12.913425 -30.442596 -0.009997 -0.996417 -0.083990 0.505089 0.166504
-26.955246 -13.530947 -18.368988 -0.009997 -0.996417 -0.083990 0.505089 0.166504
0.000001 -12.528587 -33.468994 -0.043798 -0.988635 -0.143812 0.505089 0.166504
-26.955246 -13.530947 -18.368988 -0.043798 -0.988635 -0.143812 0.505089 0.166504
-13.321716 -12.332062 -30.762848 -0.043798 -0.988635 -0.143812 0.505089 0.166504
-26.955246 -13.530947 -18.368988 0.005793 -0.999472 -0.031980 0.505089 0.166504
12.930847 -12.913425 -30.442596 0.005793 -0.999472 -0.031980 0.505089 0.166504
24.181797 -13.082622 -23.116512 0.005793 -0.999472 -0.031980 0.505089 0.166504
-42.696701 12.558800 -20.273500 -1.000000 -0.000023 -0.000290 0.505089 0.166504
-42.696407 -13.244479 -19.208067 -1.000000 -0.000023 -0.000290 0.505089 0.166504
-42.697464 14.508805 -17.797516 -1.000000 -0.000023 -0.000290 0.505089 0.166504
-42.700001 -13.334705 11.075584 -1.000000 -0.000001 -0.000119 0.505089 0.166504
-42.700001 14.346779 10.813763 -1.000000 -0.000001 -0.000119 0.505089 0.166504
-42.696407 -13.244479 -19.208067 -1.000000 -0.000001 -0.000119 0.505089 0.166504
-42.700001 14.346779 10.813763 -1.000000 -0.000034 -0.000089 0.505089 0.166504
-42.697464 14.508805 -17.797516 -1.000000 -0.000034 -0.000089 0.505089 0.166504
-42.696407 -13.244479 -19.208067 -1.000000 -0.000034 -0.000089 0.505089 0.166504
-42.700001 -13.334705 11.075584 -1.000000 0.000000 0.000001 0.505089 0.166504
-42.699997 1.347969 18.563450 -1.000000 0.000000 0.000001 0.505089 0.166504
-42.700001 14.346779 10.813763 -1.000000 0.000000 0.000001 0.505089 0.166504
8.600000 -12.671724 12.509251 1.000000 0.000000 -0.000000 0.505089 0.166504
8.600000 -13.651100 -16.401300 1.000000 0.000000 -0.000000 0.505089 0.166504
8.600000 14.568700 -16.401300 1.000000 0.000000 -0.000000 0.505089 0.166504
8.600000 14.399809 10.943672 1.000000 0.000000 0.000000 0.505089 0.166504
8.600000 3.117271 17.891127 1.000000 -0.000000 0.000000 0.505089 0.166504
24.181797 -13.082622 -23.116512 1.000000 -0.000016 -0.000197 0.505089 0.166504
24.182306 14.109758 -22.722797 1.000000 -0.000016 -0.000197 0.505089 0.166504
24.183100 -13.541200 -16.468800 1.000000 -0.000016 -0.000197 0.505089 0.166504
24.182306 14.109758 -22.722797 1.000000 0.000000 -0.000127 0.505089 0.166504
24.183100 14.458800 -16.468800 1.000000 0.000000 -0.000127 0.505089 0.166504
24.183100 -13.541200 -16.468800 1.000000 0.000000 -0.000127 0.505089 0.166504
8.600000 -13.651100 -16.401300 0.004332 0.000000 0.999991 0.505089 0.166504
24.183100 -13.541200 -16.468800 0.004332 0.000000 0.999991 0.505089 0.166504
24.183100 14.458800 -16.468800 0.004332 0.000000 0.999991 0.505089 0.166504
8.600000 14.568700 -16.401300 0.004332 0.000000 0.999991 0.505089 0.166504
-26.955246 -13.530947 -18.368988 0.001153 -0.996657 -0.081697 0.505089 0.166504
24.181797 -13.082622 -23.116512 0.001153 -0.996657 -0.081697 0.505089 0.166504
8.600000 -13.651100 -16.401300 0.001153 -0.996657 -0.081697 0.505089 0.166504
24.181797 -13.082622 -23.116512 0.006738 -0.997606 -0.068819 0.505089 0.166504
24.183100 -13.541200 -16.468800 0.006738 -0.997606 -0.068819 0.505089 0.166504
8.600000 -13.651100 -16.401300 0.006738 -0.997606 -0.068819 0.505089 0.166504
-26.955215 14.448545 -18.369019 0.000560 0.997474 -0.071035 0.505089 0.166504
8.600000 14.568700 -16.401300 0.000560 0.997474 -0.071035 0.505089 0.166504
24.182306 14.109758 -22.722797 0.000560 0.997474 -0.071035 0.505089 0.166504
8.600000 14.568700 -16.401300 0.006800 0.998423 -0.055724 0.505089 0.166504
24.183100 14.458800 -16.468800 0.006800 0.998423 -0.055724 0.505089 0.166504
24.182306 14.109758 -22.722797 0.006800 0.998423 -0.055724 0.505089 0.166504
3 0 1 2
3 3 4 5
3 6 7 8
3 9 10 11
3 12 13 14
3 15 16 17
3 18 19 20
3 21 22 23
3 24 25 26
3 27 28 29
3 30 31 32
3 33 34 35
3 36 37 38
3 39 40 41
3 42 43 44
3 45 46 47
3 48 49 50
3 51 52 53
3 54 55 56
3 57 58 59
3 60 61 62
3 63 64 65
3 66 67 68
3 69 70 71
3 72 73 74
3 75 76 77
3 78 79 80
3 81 82 83
3 84 85 86
3 87 88 89
3 90 91 92
3 93 94 95
3 96 97 98
3 99 100 101
3 102 103 104
3 105 106 107
3 105 107 108
3 108 109 105
3 110 111 112
3 113 114 115
3 116 117 118
3 116 118 119
3 120 121 122
3 123 124 125
3 126 127 128
3 129 130 131
