ply
format ascii 1.0
comment Created by Blender 2.66 (sub 1) - www.blender.org, source file: ''
element vertex 194
property float x
property float y
property float z
property float nx
property float ny
property float nz
property float s
property float t
element face 68
property list uchar uint vertex_indices
end_header
-39.438709 -13.244949 17.126650 -0.996736 0.024056 -0.077057 0.505089 0.166504
-39.160381 13.149487 21.766373 -0.996736 0.024056 -0.077057 0.505089 0.166504
-38.801418 13.342294 17.183334 -0.996736 0.024056 -0.077057 0.505089 0.166504
-39.438709 -13.244949 17.126650 -0.998181 -0.000071 0.060282 0.505089 0.166504
-39.159454 -13.393837 21.750549 -0.998181 -0.000071 0.060282 0.505089 0.166504
-39.160381 13.149487 21.766373 -0.998181 -0.000071 0.060282 0.505089 0.166504
-33.830994 -12.444458 31.883057 -0.565689 -0.044464 0.823419 0.505089 0.166504
-17.907959 -13.896942 42.743744 -0.565689 -0.044464 0.823419 0.505089 0.166504
-20.807501 11.611600 42.129200 -0.565689 -0.044464 0.823419 0.505089 0.166504
-33.792480 11.738148 31.687012 -0.626617 0.007316 0.779293 0.505089 0.166504
-33.830994 -12.444458 31.883057 -0.626617 0.007316 0.779293 0.505089 0.166504
-20.807501 11.611600 42.129200 -0.626617 0.007316 0.779293 0.505089 0.166504
-20.807501 11.611600 42.129200 -0.349468 0.000000 0.936948 0.505089 0.166504
-9.061730 -12.488400 46.510201 -0.349468 0.000000 0.936948 0.505089 0.166504
-9.061730 11.611600 46.510201 -0.349468 0.000000 0.936948 0.505089 0.166504
-20.807501 11.611600 42.129200 -0.388680 -0.021990 0.921111 0.505089 0.166504
-17.907959 -13.896942 42.743744 -0.388680 -0.021990 0.921111 0.505089 0.166504
-9.061730 -12.488400 46.510201 -0.388680 -0.021990 0.921111 0.505089 0.166504
-9.061730 11.611600 46.510201 0.000171 0.019702 0.999806 0.505089 0.166504
3.400894 -13.407425 47.001083 0.000171 0.019702 0.999806 0.505089 0.166504
3.315948 13.624393 46.468418 0.000171 0.019702 0.999806 0.505089 0.166504
-9.061730 11.611600 46.510201 -0.039358 0.000000 0.999225 0.505089 0.166504
-9.061730 -12.488400 46.510201 -0.039358 0.000000 0.999225 0.505089 0.166504
3.400894 -13.407425 47.001083 -0.039358 0.000000 0.999225 0.505089 0.166504
3.400894 -13.407425 47.001083 0.253542 -0.012542 0.967243 0.505089 0.166504
21.786926 -12.658733 42.191284 0.253542 -0.012542 0.967243 0.505089 0.166504
21.936890 11.474522 42.464905 0.253542 -0.012542 0.967243 0.505089 0.166504
3.315948 13.624393 46.468418 0.212353 0.019919 0.976990 0.505089 0.166504
3.400894 -13.407425 47.001083 0.212353 0.019919 0.976990 0.505089 0.166504
21.936890 11.474522 42.464905 0.212353 0.019919 0.976990 0.505089 0.166504
21.936890 11.474522 42.464905 0.707022 0.002863 0.707185 0.505089 0.166504
34.981995 -13.761358 29.524963 0.707022 0.002863 0.707185 0.505089 0.166504
38.373352 11.656029 26.031494 0.707022 0.002863 0.707185 0.505089 0.166504
21.936890 11.474522 42.464905 0.691908 -0.012484 0.721878 0.505089 0.166504
21.786926 -12.658733 42.191284 0.691908 -0.012484 0.721878 0.505089 0.166504
34.981995 -13.761358 29.524963 0.691908 -0.012484 0.721878 0.505089 0.166504
34.981995 -13.761358 29.524963 0.890526 -0.056781 0.451375 0.505089 0.166504
44.419788 -12.879640 11.015869 0.890526 -0.056781 0.451375 0.505089 0.166504
38.373352 11.656029 26.031494 0.890526 -0.056781 0.451375 0.505089 0.166504
38.373352 11.656029 26.031494 0.948963 0.042612 0.312497 0.505089 0.166504
44.419788 -12.879640 11.015869 0.948963 0.042612 0.312497 0.505089 0.166504
43.256344 13.248023 10.986190 0.948963 0.042612 0.312497 0.505089 0.166504
-33.830994 -12.444458 31.883057 -0.885066 -0.000308 0.465465 0.505089 0.166504
-39.160381 13.149487 21.766373 -0.885066 -0.000308 0.465465 0.505089 0.166504
-39.159454 -13.393837 21.750549 -0.885066 -0.000308 0.465465 0.505089 0.166504
-33.830994 -12.444458 31.883057 -0.879181 0.005263 0.476459 0.505089 0.166504
-33.792480 11.738148 31.687012 -0.879181 0.005263 0.476459 0.505089 0.166504
-39.160381 13.149487 21.766373 -0.879181 0.005263 0.476459 0.505089 0.166504
-20.807501 11.611600 42.129200 -0.516342 0.558912 0.648851 0.505089 0.166504
-31.098328 14.273439 31.647095 -0.516342 0.558912 0.648851 0.505089 0.166504
-33.792480 11.738148 31.687012 -0.516342 0.558912 0.648851 0.505089 0.166504
-20.807501 11.611600 42.129200 -0.392107 0.723157 0.568591 0.505089 0.166504
-14.173340 14.282003 43.307861 -0.392107 0.723157 0.568591 0.505089 0.166504
-31.098328 14.273439 31.647095 -0.392107 0.723157 0.568591 0.505089 0.166504
-9.061730 11.611600 46.510201 -0.318132 0.413877 0.852935 0.505089 0.166504
-14.173340 14.282003 43.307861 -0.318132 0.413877 0.852935 0.505089 0.166504
-20.807501 11.611600 42.129200 -0.318132 0.413877 0.852935 0.505089 0.166504
3.315948 13.624393 46.468418 -0.106962 0.672957 0.731907 0.505089 0.166504
-14.173340 14.282003 43.307861 -0.106962 0.672957 0.731907 0.505089 0.166504
-9.061730 11.611600 46.510201 -0.106962 0.672957 0.731907 0.505089 0.166504
21.936890 11.474522 42.464905 0.236470 0.521635 0.819743 0.505089 0.166504
19.041534 14.281261 41.514084 0.236470 0.521635 0.819743 0.505089 0.166504
3.315948 13.624393 46.468418 0.236470 0.521635 0.819743 0.505089 0.166504
35.048523 14.274704 26.901917 0.489964 0.687155 0.536426 0.505089 0.166504
19.041534 14.281261 41.514084 0.489964 0.687155 0.536426 0.505089 0.166504
21.936890 11.474522 42.464905 0.489964 0.687155 0.536426 0.505089 0.166504
38.373352 11.656029 26.031494 0.587925 0.548993 0.594097 0.505089 0.166504
35.048523 14.274704 26.901917 0.587925 0.548993 0.594097 0.505089 0.166504
21.936890 11.474522 42.464905 0.587925 0.548993 0.594097 0.505089 0.166504
43.256344 13.248023 10.986190 0.638083 0.716126 0.282867 0.505089 0.166504
35.048523 14.274704 26.901917 0.638083 0.716126 0.282867 0.505089 0.166504
38.373352 11.656029 26.031494 0.638083 0.716126 0.282867 0.505089 0.166504
-33.792480 11.738148 31.687012 -0.616163 0.661502 0.427503 0.505089 0.166504
-31.098328 14.273439 31.647095 -0.616163 0.661502 0.427503 0.505089 0.166504
-39.160381 13.149487 21.766373 -0.616163 0.661502 0.427503 0.505089 0.166504
-27.899498 13.892990 -7.695404 0.003332 0.564236 -0.825606 0.505089 0.166504
32.600502 14.112669 -7.301105 0.003332 0.564236 -0.825606 0.505089 0.166504
32.600498 3.971027 -14.232112 0.003332 0.564236 -0.825606 0.505089 0.166504
-27.899502 2.745827 -14.475812 -0.007082 0.519664 -0.854341 0.505089 0.166504
-27.899498 13.892990 -7.695404 -0.007082 0.519664 -0.854341 0.505089 0.166504
32.600498 3.971027 -14.232112 -0.007082 0.519664 -0.854341 0.505089 0.166504
-27.899502 2.745827 -14.475812 0.006129 -0.104823 -0.994472 0.505089 0.166504
32.600498 3.971027 -14.232112 0.006129 -0.104823 -0.994472 0.505089 0.166504
32.600498 -6.452650 -13.133400 0.006129 -0.104823 -0.994472 0.505089 0.166504
-27.899500 -6.452660 -13.133400 0.000000 -0.144409 -0.989518 0.505089 0.166504
-27.899502 2.745827 -14.475812 0.000000 -0.144409 -0.989518 0.505089 0.166504
32.600498 -6.452650 -13.133400 0.000000 -0.144409 -0.989518 0.505089 0.166504
-27.899500 -6.452660 -13.133400 0.000000 -0.591282 -0.806465 0.505089 0.166504
32.600498 -6.452650 -13.133400 0.000000 -0.591282 -0.806465 0.505089 0.166504
32.600498 -13.869686 -7.695393 0.000000 -0.591282 -0.806465 0.505089 0.166504
-27.899502 -14.089369 -7.301098 -0.002976 -0.606953 -0.794733 0.505089 0.166504
-27.899500 -6.452660 -13.133400 -0.002976 -0.606953 -0.794733 0.505089 0.166504
32.600498 -13.869686 -7.695393 -0.002976 -0.606953 -0.794733 0.505089 0.166504
-27.899500 -6.452660 -13.133400 -1.000000 0.000000 -0.000000 0.505089 0.166504
-27.899502 -14.089369 -7.301098 -1.000000 0.000000 -0.000000 0.505089 0.166504
-27.899498 13.892990 -7.695404 -1.000000 0.000000 -0.000000 0.505089 0.166504
-27.899502 2.745827 -14.475812 -1.000000 -0.000000 0.000001 0.505089 0.166504
-27.899500 -6.452660 -13.133400 -1.000000 -0.000000 0.000001 0.505089 0.166504
-27.899498 13.892990 -7.695404 -1.000000 -0.000000 0.000001 0.505089 0.166504
32.600498 -13.869686 -7.695393 1.000000 -0.000000 -0.000000 0.505089 0.166504
32.600498 3.971027 -14.232112 1.000000 -0.000000 -0.000000 0.505089 0.166504
32.600502 14.112669 -7.301105 1.000000 -0.000000 -0.000000 0.505089 0.166504
32.600498 -6.452650 -13.133400 1.000000 0.000000 0.000000 0.505089 0.166504
-39.159454 -13.393837 21.750549 -0.497086 -0.799859 0.336350 0.505089 0.166504
-31.057922 -14.250269 31.687012 -0.497086 -0.799859 0.336350 0.505089 0.166504
-33.830994 -12.444458 31.883057 -0.497086 -0.799859 0.336350 0.505089 0.166504
-33.830994 -12.444458 31.883057 -0.432943 -0.723253 0.538019 0.505089 0.166504
-31.057922 -14.250269 31.687012 -0.432943 -0.723253 0.538019 0.505089 0.166504
-17.907959 -13.896942 42.743744 -0.432943 -0.723253 0.538019 0.505089 0.166504
-17.907959 -13.896942 42.743744 -0.083200 -0.853408 0.514560 0.505089 0.166504
3.400894 -13.407425 47.001083 -0.083200 -0.853408 0.514560 0.505089 0.166504
-9.061730 -12.488400 46.510201 -0.083200 -0.853408 0.514560 0.505089 0.166504
18.952698 -14.258312 41.549042 0.214034 -0.666109 0.714485 0.505089 0.166504
21.786926 -12.658733 42.191284 0.214034 -0.666109 0.714485 0.505089 0.166504
3.400894 -13.407425 47.001083 0.214034 -0.666109 0.714485 0.505089 0.166504
18.952698 -14.258312 41.549042 0.360697 -0.818583 0.447013 0.505089 0.166504
34.981995 -13.761358 29.524963 0.360697 -0.818583 0.447013 0.505089 0.166504
21.786926 -12.658733 42.191284 0.360697 -0.818583 0.447013 0.505089 0.166504
3.315948 13.624393 46.468418 0.008559 0.987389 0.158080 0.505089 0.166504
19.041534 14.281261 41.514084 0.008559 0.987389 0.158080 0.505089 0.166504
-14.173340 14.282003 43.307861 0.008559 0.987389 0.158080 0.505089 0.166504
19.041534 14.281261 41.514084 -0.000016 1.000000 -0.000711 0.505089 0.166504
-31.098328 14.273439 31.647095 -0.000016 1.000000 -0.000711 0.505089 0.166504
-14.173340 14.282003 43.307861 -0.000016 1.000000 -0.000711 0.505089 0.166504
19.041534 14.281261 41.514084 -0.000056 1.000000 -0.000510 0.505089 0.166504
35.048523 14.274704 26.901917 -0.000056 1.000000 -0.000510 0.505089 0.166504
-31.098328 14.273439 31.647095 -0.000056 1.000000 -0.000510 0.505089 0.166504
-27.899506 14.271812 18.268393 -0.003536 0.999887 -0.014589 0.505089 0.166504
32.600502 14.112669 -7.301105 -0.003536 0.999887 -0.014589 0.505089 0.166504
-27.899498 13.892990 -7.695404 -0.003536 0.999887 -0.014589 0.505089 0.166504
-27.899506 14.271812 18.268393 -0.000959 0.999964 -0.008494 0.505089 0.166504
32.600498 14.270400 11.268400 -0.000959 0.999964 -0.008494 0.505089 0.166504
32.600502 14.112669 -7.301105 -0.000959 0.999964 -0.008494 0.505089 0.166504
32.600498 -14.247200 11.268400 0.003501 -0.999796 -0.019903 0.505089 0.166504
-27.899502 -14.089369 -7.301098 0.003501 -0.999796 -0.019903 0.505089 0.166504
32.600498 -13.869686 -7.695393 0.003501 -0.999796 -0.019903 0.505089 0.166504
32.600498 -14.247200 11.268400 -0.000706 -0.999981 -0.006200 0.505089 0.166504
-27.899500 -14.247910 18.268391 -0.000706 -0.999981 -0.006200 0.505089 0.166504
-27.899502 -14.089369 -7.301098 -0.000706 -0.999981 -0.006200 0.505089 0.166504
-27.899506 14.271812 18.268393 -1.000000 0.000000 -0.000000 0.505089 0.166504
-27.899500 -14.247910 18.268391 -1.000000 -0.000000 0.000000 0.505089 0.166504
32.600498 14.270400 11.268400 1.000000 -0.000000 0.000000 0.505089 0.166504
32.600498 -14.247200 11.268400 1.000000 0.000000 -0.000000 0.505089 0.166504
44.419788 -12.879640 11.015869 -0.026698 -0.002324 -0.999641 0.505089 0.166504
32.600498 14.270400 11.268400 -0.026698 -0.002324 -0.999641 0.505089 0.166504
43.256344 13.248023 10.986190 -0.026698 -0.002324 -0.999641 0.505089 0.166504
44.419788 -12.879640 11.015869 -0.021361 -0.000000 -0.999772 0.505089 0.166504
32.600498 -14.247200 11.268400 -0.021361 -0.000000 -0.999772 0.505089 0.166504
32.600498 14.270400 11.268400 -0.021361 -0.000000 -0.999772 0.505089 0.166504
32.600498 14.270400 11.268400 -0.000008 1.000000 -0.000274 0.505089 0.166504
-27.899506 14.271812 18.268393 -0.000008 1.000000 -0.000274 0.505089 0.166504
35.048523 14.274704 26.901917 -0.000008 1.000000 -0.000274 0.505089 0.166504
43.256344 13.248023 10.986190 0.095098 0.995353 -0.015165 0.505089 0.166504
32.600498 14.270400 11.268400 0.095098 0.995353 -0.015165 0.505089 0.166504
35.048523 14.274704 26.901917 0.095098 0.995353 -0.015165 0.505089 0.166504
34.981995 -13.761358 29.524963 0.115172 -0.993280 0.011409 0.505089 0.166504
32.600498 -14.247200 11.268400 0.115172 -0.993280 0.011409 0.505089 0.166504
44.419788 -12.879640 11.015869 0.115172 -0.993280 0.011409 0.505089 0.166504
34.981995 -13.761358 29.524963 0.003044 -0.999652 0.026206 0.505089 0.166504
-27.899500 -14.247910 18.268391 0.003044 -0.999652 0.026206 0.505089 0.166504
32.600498 -14.247200 11.268400 0.003044 -0.999652 0.026206 0.505089 0.166504
-27.899506 14.271812 18.268393 -0.000028 1.000000 -0.000128 0.505089 0.166504
-31.098328 14.273439 31.647095 -0.000028 1.000000 -0.000128 0.505089 0.166504
35.048523 14.274704 26.901917 -0.000028 1.000000 -0.000128 0.505089 0.166504
-27.899506 14.271812 18.268393 0.099061 -0.000253 -0.995081 0.505089 0.166504
-39.438709 -13.244949 17.126650 0.099061 -0.000253 -0.995081 0.505089 0.166504
-38.801418 13.342294 17.183334 0.099061 -0.000253 -0.995081 0.505089 0.166504
-27.899500 -14.247910 18.268391 0.098464 0.000000 -0.995141 0.505089 0.166504
-39.438709 -13.244949 17.126650 0.098464 0.000000 -0.995141 0.505089 0.166504
-27.899506 14.271812 18.268393 0.098464 0.000000 -0.995141 0.505089 0.166504
-39.160381 13.149487 21.766373 -0.088356 0.995475 0.034959 0.505089 0.166504
-27.899506 14.271812 18.268393 -0.088356 0.995475 0.034959 0.505089 0.166504
-38.801418 13.342294 17.183334 -0.088356 0.995475 0.034959 0.505089 0.166504
-39.160381 13.149487 21.766373 -0.107048 0.993921 -0.025716 0.505089 0.166504
-31.098328 14.273439 31.647095 -0.107048 0.993921 -0.025716 0.505089 0.166504
-27.899506 14.271812 18.268393 -0.107048 0.993921 -0.025716 0.505089 0.166504
-39.159454 -13.393837 21.750549 -0.081575 -0.996479 -0.019376 0.505089 0.166504
-27.899500 -14.247910 18.268391 -0.081575 -0.996479 -0.019376 0.505089 0.166504
-31.057922 -14.250269 31.687012 -0.081575 -0.996479 -0.019376 0.505089 0.166504
-39.159454 -13.393837 21.750549 -0.083907 -0.996108 -0.027007 0.505089 0.166504
-39.438709 -13.244949 17.126650 -0.083907 -0.996108 -0.027007 0.505089 0.166504
-27.899500 -14.247910 18.268391 -0.083907 -0.996108 -0.027007 0.505089 0.166504
-27.899500 -14.247910 18.268391 0.007455 -0.999971 0.001579 0.505089 0.166504
34.981995 -13.761358 29.524963 0.007455 -0.999971 0.001579 0.505089 0.166504
-31.057922 -14.250269 31.687012 0.007455 -0.999971 0.001579 0.505089 0.166504
34.981995 -13.761358 29.524963 0.006323 -0.999439 -0.032878 0.505089 0.166504
18.952698 -14.258312 41.549042 0.006323 -0.999439 -0.032878 0.505089 0.166504
-31.057922 -14.250269 31.687012 0.006323 -0.999439 -0.032878 0.505089 0.166504
-17.907959 -13.896942 42.743744 -0.008435 -0.999084 0.041958 0.505089 0.166504
-31.057922 -14.250269 31.687012 -0.008435 -0.999084 0.041958 0.505089 0.166504
18.952698 -14.258312 41.549042 -0.008435 -0.999084 0.041958 0.505089 0.166504
3.400894 -13.407425 47.001083 -0.005177 -0.990171 0.139765 0.505089 0.166504
-17.907959 -13.896942 42.743744 -0.005177 -0.990171 0.139765 0.505089 0.166504
18.952698 -14.258312 41.549042 -0.005177 -0.990171 0.139765 0.505089 0.166504
3 0 1 2
3 3 4 5
3 6 7 8
3 9 10 11
3 12 13 14
3 15 16 17
3 18 19 20
3 21 22 23
3 24 25 26
3 27 28 29
3 30 31 32
3 33 34 35
3 36 37 38
3 39 40 41
3 42 43 44
3 45 46 47
3 48 49 50
3 51 52 53
3 54 55 56
3 57 58 59
3 60 61 62
3 63 64 65
3 66 67 68
3 69 70 71
3 72 73 74
3 75 76 77
3 78 79 80
3 81 82 83
3 84 85 86
3 87 88 89
3 90 91 92
3 93 94 95
3 96 97 98
3 99 100 101
3 99 102 100
3 103 104 105
3 106 107 108
3 109 110 111
3 112 113 114
3 115 116 117
3 118 119 120
3 121 122 123
3 124 125 126
3 127 128 129
3 130 131 132
3 133 134 135
3 136 137 138
3 94 139 95
3 94 140 139
3 141 99 101
3 141 142 99
3 143 144 145
3 146 147 148
3 149 150 151
3 152 153 154
3 155 156 157
3 158 159 160
3 161 162 163
3 164 165 166
3 167 168 169
3 170 171 172
3 173 174 175
3 176 177 178
3 179 180 181
3 182 183 184
3 185 186 187
3 188 189 190
3 191 192 193
