ply
format ascii 1.0
comment Created by Blender 2.66 (sub 1) - www.blender.org, source file: ''
element vertex 130
property float x
property float y
property float z
property float nx
property float ny
property float nz
property float s
property float t
element face 46
property list uchar uint vertex_indices
end_header
8.600000 14.483589 9.888264 0.002675 0.563115 0.826374 0.505089 0.166504
-42.699997 14.536623 10.018158 0.002675 0.563115 0.826374 0.505089 0.166504
8.599999 4.445087 16.728783 0.002675 0.563115 0.826374 0.505089 0.166504
-42.699997 14.536623 10.018158 -0.026440 0.456857 0.889147 0.505089 0.166504
-42.700005 -0.293494 17.638086 -0.026440 0.456857 0.889147 0.505089 0.166504
8.599999 4.445087 16.728783 -0.026440 0.456857 0.889147 0.505089 0.166504
8.600000 -5.688800 15.660800 0.027298 -0.104768 0.994122 0.505089 0.166504
8.599999 4.445087 16.728783 0.027298 -0.104768 0.994122 0.505089 0.166504
-42.700005 -0.293494 17.638086 0.027298 -0.104768 0.994122 0.505089 0.166504
-42.700005 -13.292397 9.888248 -0.002704 -0.512087 0.858930 0.505089 0.166504
8.600001 -13.345427 10.018154 -0.002704 -0.512087 0.858930 0.505089 0.166504
-42.700005 -0.293494 17.638086 -0.002704 -0.512087 0.858930 0.505089 0.166504
8.600001 -13.345427 10.018154 -0.031351 -0.592970 0.804614 0.505089 0.166504
8.600000 -5.688800 15.660800 -0.031351 -0.592970 0.804614 0.505089 0.166504
-42.700005 -0.293494 17.638086 -0.031351 -0.592970 0.804614 0.505089 0.166504
8.600000 14.705500 -17.326799 0.001054 0.999966 0.008154 0.505089 0.166504
-42.699997 14.536623 10.018158 0.001054 0.999966 0.008154 0.505089 0.166504
8.600000 14.483589 9.888264 0.001054 0.999966 0.008154 0.505089 0.166504
-42.695827 14.209007 -20.203178 -0.009070 0.999900 -0.010841 0.505089 0.166504
-42.699997 14.536623 10.018158 -0.009070 0.999900 -0.010841 0.505089 0.166504
8.600000 14.705500 -17.326799 -0.009070 0.999900 -0.010841 0.505089 0.166504
-42.700005 -13.292397 9.888248 -0.001048 -0.999983 0.005685 0.505089 0.166504
-42.697727 -13.454973 -18.709705 -0.001048 -0.999983 0.005685 0.505089 0.166504
8.600001 -13.345427 10.018154 -0.001048 -0.999983 0.005685 0.505089 0.166504
-42.697727 -13.454973 -18.709705 -0.001323 -0.999980 0.006176 0.505089 0.166504
8.600000 -13.514300 -17.326799 -0.001323 -0.999980 0.006176 0.505089 0.166504
8.600001 -13.345427 10.018154 -0.001323 -0.999980 0.006176 0.505089 0.166504
-12.993256 -12.270390 -31.702255 -0.408731 -0.746729 -0.524723 0.505089 0.166504
-27.152321 -13.398821 -19.067261 -0.408731 -0.746729 -0.524723 0.505089 0.166504
-27.016586 -11.489098 -21.890701 -0.408731 -0.746729 -0.524723 0.505089 0.166504
-42.696701 -11.504400 -21.198999 -0.023935 -0.827546 -0.560887 0.505089 0.166504
-27.016586 -11.489098 -21.890701 -0.023935 -0.827546 -0.560887 0.505089 0.166504
-27.152321 -13.398821 -19.067261 -0.023935 -0.827546 -0.560887 0.505089 0.166504
-42.696701 -11.504400 -21.198999 -0.011343 -0.787079 -0.616748 0.505089 0.166504
-27.152321 -13.398821 -19.067261 -0.011343 -0.787079 -0.616748 0.505089 0.166504
-42.697727 -13.454973 -18.709705 -0.011343 -0.787079 -0.616748 0.505089 0.166504
-27.152321 -13.398821 -19.067261 -0.035942 -0.991021 -0.128785 0.505089 0.166504
-12.993256 -12.270390 -31.702255 -0.035942 -0.991021 -0.128785 0.505089 0.166504
-0.000000 -12.391756 -34.394501 -0.035942 -0.991021 -0.128785 0.505089 0.166504
-27.152321 -13.398821 -19.067261 -0.005762 -0.997112 -0.075722 0.505089 0.166504
-0.000000 -12.391756 -34.394501 -0.005762 -0.997112 -0.075722 0.505089 0.166504
13.493805 -12.704309 -31.305618 -0.005762 -0.997112 -0.075722 0.505089 0.166504
13.493805 -12.704309 -31.305618 0.002309 -0.998796 -0.049012 0.505089 0.166504
24.182312 -13.055357 -23.648186 0.002309 -0.998796 -0.049012 0.505089 0.166504
-27.152321 -13.398821 -19.067261 0.002309 -0.998796 -0.049012 0.505089 0.166504
8.600000 -13.514300 -17.326799 0.001410 -0.995474 -0.095020 0.505089 0.166504
-42.697727 -13.454973 -18.709705 0.001410 -0.995474 -0.095020 0.505089 0.166504
-27.152321 -13.398821 -19.067261 0.001410 -0.995474 -0.095020 0.505089 0.166504
-12.993256 -12.270390 -31.702255 -0.202965 -0.008917 -0.979145 0.505089 0.166504
-13.013428 13.316570 -31.931091 -0.202965 -0.008917 -0.979145 0.505089 0.166504
-0.000000 -12.391756 -34.394501 -0.202965 -0.008917 -0.979145 0.505089 0.166504
-13.013428 13.316570 -31.931091 -0.164814 0.011077 -0.986262 0.505089 0.166504
0.000003 13.732773 -34.101089 -0.164814 0.011077 -0.986262 0.505089 0.166504
-0.000000 -12.391756 -34.394501 -0.164814 0.011077 -0.986262 0.505089 0.166504
-0.000000 -12.391756 -34.394501 0.183391 0.011040 -0.982978 0.505089 0.166504
0.000003 13.732773 -34.101089 0.183391 0.011040 -0.982978 0.505089 0.166504
12.395538 13.885663 -31.786774 0.183391 0.011040 -0.982978 0.505089 0.166504
-0.000000 -12.391756 -34.394501 0.222946 -0.008431 -0.974794 0.505089 0.166504
12.395538 13.885663 -31.786774 0.222946 -0.008431 -0.974794 0.505089 0.166504
13.493805 -12.704309 -31.305618 0.222946 -0.008431 -0.974794 0.505089 0.166504
13.493805 -12.704309 -31.305618 0.549032 0.007554 -0.835767 0.505089 0.166504
12.395538 13.885663 -31.786774 0.549032 0.007554 -0.835767 0.505089 0.166504
24.181795 14.137008 -24.041885 0.549032 0.007554 -0.835767 0.505089 0.166504
13.493805 -12.704309 -31.305618 0.582089 -0.011760 -0.813040 0.505089 0.166504
24.181795 14.137008 -24.041885 0.582089 -0.011760 -0.813040 0.505089 0.166504
24.182312 -13.055357 -23.648186 0.582089 -0.011760 -0.813040 0.505089 0.166504
-27.016586 -11.489098 -21.890701 -0.622180 0.034663 -0.782107 0.505089 0.166504
-26.906715 14.084564 -20.844696 -0.622180 0.034663 -0.782107 0.505089 0.166504
-13.013428 13.316570 -31.931091 -0.622180 0.034663 -0.782107 0.505089 0.166504
-27.016586 -11.489098 -21.890701 -0.573548 -0.007778 -0.819135 0.505089 0.166504
-13.013428 13.316570 -31.931091 -0.573548 -0.007778 -0.819135 0.505089 0.166504
-12.993256 -12.270390 -31.702255 -0.573548 -0.007778 -0.819135 0.505089 0.166504
-27.016586 -11.489098 -21.890701 -0.044073 0.041017 -0.998186 0.505089 0.166504
-42.696701 -11.504400 -21.198999 -0.044073 0.041017 -0.998186 0.505089 0.166504
-26.906715 14.084564 -20.844696 -0.044073 0.041017 -0.998186 0.505089 0.166504
-42.696701 -11.504400 -21.198999 -0.040262 0.038669 -0.998441 0.505089 0.166504
-42.695827 14.209007 -20.203178 -0.040262 0.038669 -0.998441 0.505089 0.166504
-26.906715 14.084564 -20.844696 -0.040262 0.038669 -0.998441 0.505089 0.166504
-42.695827 14.209007 -20.203178 0.000495 0.983909 -0.178668 0.505089 0.166504
8.600000 14.705500 -17.326799 0.000495 0.983909 -0.178668 0.505089 0.166504
-26.906715 14.084564 -20.844696 0.000495 0.983909 -0.178668 0.505089 0.166504
0.000003 13.732773 -34.101089 -0.054435 0.989111 -0.136736 0.505089 0.166504
-13.013428 13.316570 -31.931091 -0.054435 0.989111 -0.136736 0.505089 0.166504
-26.906715 14.084564 -20.844696 -0.054435 0.989111 -0.136736 0.505089 0.166504
0.000003 13.732773 -34.101089 -0.005348 0.999287 -0.037373 0.505089 0.166504
-26.906715 14.084564 -20.844696 -0.005348 0.999287 -0.037373 0.505089 0.166504
12.395538 13.885663 -31.786774 -0.005348 0.999287 -0.037373 0.505089 0.166504
-26.906715 14.084564 -20.844696 -0.002790 0.999599 -0.028193 0.505089 0.166504
24.181795 14.137008 -24.041885 -0.002790 0.999599 -0.028193 0.505089 0.166504
12.395538 13.885663 -31.786774 -0.002790 0.999599 -0.028193 0.505089 0.166504
-42.696701 -11.504400 -21.198999 -1.000000 0.000048 -0.000374 0.505089 0.166504
-42.697727 -13.454973 -18.709705 -1.000000 0.000048 -0.000374 0.505089 0.166504
-42.695827 14.209007 -20.203178 -1.000000 0.000048 -0.000374 0.505089 0.166504
-42.699997 14.536623 10.018158 -1.000000 0.000061 -0.000139 0.505089 0.166504
-42.695827 14.209007 -20.203178 -1.000000 0.000061 -0.000139 0.505089 0.166504
-42.697727 -13.454973 -18.709705 -1.000000 0.000061 -0.000139 0.505089 0.166504
-42.699997 14.536623 10.018158 -1.000000 0.000001 -0.000080 0.505089 0.166504
-42.697727 -13.454973 -18.709705 -1.000000 0.000001 -0.000080 0.505089 0.166504
-42.700005 -13.292397 9.888248 -1.000000 0.000001 -0.000080 0.505089 0.166504
-42.699997 14.536623 10.018158 -1.000000 0.000000 -0.000000 0.505089 0.166504
-42.700005 -13.292397 9.888248 -1.000000 0.000000 -0.000000 0.505089 0.166504
-42.700005 -0.293494 17.638086 -1.000000 0.000000 -0.000000 0.505089 0.166504
8.600000 14.483589 9.888264 1.000000 0.000000 0.000000 0.505089 0.166504
8.600001 -13.345427 10.018154 1.000000 0.000000 0.000000 0.505089 0.166504
8.600000 14.705500 -17.326799 1.000000 0.000000 0.000000 0.505089 0.166504
8.600000 -13.514300 -17.326799 1.000000 0.000000 -0.000000 0.505089 0.166504
8.599999 4.445087 16.728783 1.000000 0.000000 0.000000 0.505089 0.166504
8.600000 -5.688800 15.660800 1.000000 0.000000 0.000000 0.505089 0.166504
24.181795 14.137008 -24.041885 1.000000 0.000016 -0.000197 0.505089 0.166504
24.183100 14.595600 -17.394199 1.000000 0.000016 -0.000197 0.505089 0.166504
24.182312 -13.055357 -23.648186 1.000000 0.000016 -0.000197 0.505089 0.166504
24.183100 14.595600 -17.394199 1.000000 0.000000 -0.000126 0.505089 0.166504
24.183100 -13.404400 -17.394199 1.000000 0.000000 -0.000126 0.505089 0.166504
24.182312 -13.055357 -23.648186 1.000000 0.000000 -0.000126 0.505089 0.166504
8.600000 14.705500 -17.326799 0.004325 -0.000000 0.999991 0.505089 0.166504
8.600000 -13.514300 -17.326799 0.004325 -0.000000 0.999991 0.505089 0.166504
24.183100 -13.404400 -17.394199 0.004325 -0.000000 0.999991 0.505089 0.166504
24.183100 14.595600 -17.394199 0.004325 0.000000 0.999991 0.505089 0.166504
-26.906715 14.084564 -20.844696 -0.007361 0.994829 -0.101301 0.505089 0.166504
8.600000 14.705500 -17.326799 -0.007361 0.994829 -0.101301 0.505089 0.166504
24.181795 14.137008 -24.041885 -0.007361 0.994829 -0.101301 0.505089 0.166504
8.600000 14.705500 -17.326799 0.006738 0.997606 -0.068821 0.505089 0.166504
24.183100 14.595600 -17.394199 0.006738 0.997606 -0.068821 0.505089 0.166504
24.181795 14.137008 -24.041885 0.006738 0.997606 -0.068821 0.505089 0.166504
-27.152321 -13.398821 -19.067261 0.000271 -0.997423 -0.071746 0.505089 0.166504
24.182312 -13.055357 -23.648186 0.000271 -0.997423 -0.071746 0.505089 0.166504
8.600000 -13.514300 -17.326799 0.000271 -0.997423 -0.071746 0.505089 0.166504
24.182312 -13.055357 -23.648186 0.006800 -0.998423 -0.055724 0.505089 0.166504
24.183100 -13.404400 -17.394199 0.006800 -0.998423 -0.055724 0.505089 0.166504
8.600000 -13.514300 -17.326799 0.006800 -0.998423 -0.055724 0.505089 0.166504
3 0 1 2
3 3 4 5
3 6 7 8
3 9 10 11
3 12 13 14
3 15 16 17
3 18 19 20
3 21 22 23
3 24 25 26
3 27 28 29
3 30 31 32
3 33 34 35
3 36 37 38
3 39 40 41
3 42 43 44
3 45 46 47
3 48 49 50
3 51 52 53
3 54 55 56
3 57 58 59
3 60 61 62
3 63 64 65
3 66 67 68
3 69 70 71
3 72 73 74
3 75 76 77
3 78 79 80
3 81 82 83
3 84 85 86
3 87 88 89
3 90 91 92
3 93 94 95
3 96 97 98
3 99 100 101
3 102 103 104
3 103 105 104
3 102 106 103
3 106 107 103
3 108 109 110
3 111 112 113
3 114 115 116
3 114 116 117
3 118 119 120
3 121 122 123
3 124 125 126
3 127 128 129
